solid 
   facet normal 0.000000e+00 0.000000e+00 -1.000000e+00
      outer loop
         vertex -1.570000e+01 6.370000e+01 0.000000e+00
         vertex -1.690000e+01 6.570000e+01 0.000000e+00
         vertex 1.690000e+01 6.570000e+01 0.000000e+00
      endloop
   endfacet
   facet normal 0.000000e+00 -0.000000e+00 -1.000000e+00
      outer loop
         vertex -1.770000e+01 6.490000e+01 0.000000e+00
         vertex -1.714721e+01 6.566084e+01 0.000000e+00
         vertex -1.690000e+01 6.570000e+01 0.000000e+00
      endloop
   endfacet
   facet normal 0.000000e+00 -0.000000e+00 -1.000000e+00
      outer loop
         vertex -1.770000e+01 6.490000e+01 0.000000e+00
         vertex -1.737023e+01 6.554721e+01 0.000000e+00
         vertex -1.714721e+01 6.566084e+01 0.000000e+00
      endloop
   endfacet
   facet normal 0.000000e+00 -0.000000e+00 -1.000000e+00
      outer loop
         vertex -1.766084e+01 6.514722e+01 0.000000e+00
         vertex -1.754721e+01 6.537023e+01 0.000000e+00
         vertex -1.737023e+01 6.554721e+01 0.000000e+00
      endloop
   endfacet
   facet normal 0.000000e+00 0.000000e+00 -1.000000e+00
      outer loop
         vertex -1.737023e+01 6.554721e+01 0.000000e+00
         vertex -1.770000e+01 6.490000e+01 0.000000e+00
         vertex -1.766084e+01 6.514722e+01 0.000000e+00
      endloop
   endfacet
   facet normal 0.000000e+00 0.000000e+00 -1.000000e+00
      outer loop
         vertex -1.570000e+01 -6.370000e+01 0.000000e+00
         vertex -1.770000e+01 -6.490000e+01 0.000000e+00
         vertex -1.770000e+01 6.490000e+01 0.000000e+00
      endloop
   endfacet
   facet normal 0.000000e+00 0.000000e+00 -1.000000e+00
      outer loop
         vertex -1.754721e+01 -6.537023e+01 0.000000e+00
         vertex -1.766084e+01 -6.514722e+01 0.000000e+00
         vertex -1.770000e+01 -6.490000e+01 0.000000e+00
      endloop
   endfacet
   facet normal 0.000000e+00 0.000000e+00 -1.000000e+00
      outer loop
         vertex -1.770000e+01 -6.490000e+01 0.000000e+00
         vertex -1.737023e+01 -6.554721e+01 0.000000e+00
         vertex -1.754721e+01 -6.537023e+01 0.000000e+00
      endloop
   endfacet
   facet normal 0.000000e+00 0.000000e+00 -1.000000e+00
      outer loop
         vertex -1.690000e+01 -6.570000e+01 0.000000e+00
         vertex -1.714721e+01 -6.566084e+01 0.000000e+00
         vertex -1.737023e+01 -6.554721e+01 0.000000e+00
      endloop
   endfacet
   facet normal 0.000000e+00 0.000000e+00 -1.000000e+00
      outer loop
         vertex 1.570000e+01 -6.370000e+01 0.000000e+00
         vertex 1.690000e+01 -6.570000e+01 0.000000e+00
         vertex -1.690000e+01 -6.570000e+01 0.000000e+00
      endloop
   endfacet
   facet normal -0.000000e+00 0.000000e+00 -1.000000e+00
      outer loop
         vertex 1.770000e+01 -6.490000e+01 0.000000e+00
         vertex 1.714721e+01 -6.566084e+01 0.000000e+00
         vertex 1.690000e+01 -6.570000e+01 0.000000e+00
      endloop
   endfacet
   facet normal -0.000000e+00 0.000000e+00 -1.000000e+00
      outer loop
         vertex 1.770000e+01 -6.490000e+01 0.000000e+00
         vertex 1.737023e+01 -6.554721e+01 0.000000e+00
         vertex 1.714721e+01 -6.566084e+01 0.000000e+00
      endloop
   endfacet
   facet normal -0.000000e+00 0.000000e+00 -1.000000e+00
      outer loop
         vertex 1.766084e+01 -6.514722e+01 0.000000e+00
         vertex 1.754721e+01 -6.537023e+01 0.000000e+00
         vertex 1.737023e+01 -6.554721e+01 0.000000e+00
      endloop
   endfacet
   facet normal 0.000000e+00 0.000000e+00 -1.000000e+00
      outer loop
         vertex 1.737023e+01 -6.554721e+01 0.000000e+00
         vertex 1.770000e+01 -6.490000e+01 0.000000e+00
         vertex 1.766084e+01 -6.514722e+01 0.000000e+00
      endloop
   endfacet
   facet normal 0.000000e+00 -0.000000e+00 -1.000000e+00
      outer loop
         vertex 1.570000e+01 -6.370000e+01 0.000000e+00
         vertex 1.770000e+01 6.490000e+01 0.000000e+00
         vertex 1.770000e+01 -6.490000e+01 0.000000e+00
      endloop
   endfacet
   facet normal -0.000000e+00 -0.000000e+00 -1.000000e+00
      outer loop
         vertex 1.754721e+01 6.537023e+01 0.000000e+00
         vertex 1.766084e+01 6.514722e+01 0.000000e+00
         vertex 1.770000e+01 6.490000e+01 0.000000e+00
      endloop
   endfacet
   facet normal 0.000000e+00 0.000000e+00 -1.000000e+00
      outer loop
         vertex 1.770000e+01 6.490000e+01 0.000000e+00
         vertex 1.737023e+01 6.554721e+01 0.000000e+00
         vertex 1.754721e+01 6.537023e+01 0.000000e+00
      endloop
   endfacet
   facet normal -0.000000e+00 -0.000000e+00 -1.000000e+00
      outer loop
         vertex 1.690000e+01 6.570000e+01 0.000000e+00
         vertex 1.714721e+01 6.566084e+01 0.000000e+00
         vertex 1.737023e+01 6.554721e+01 0.000000e+00
      endloop
   endfacet
   facet normal 0.000000e+00 -0.000000e+00 -1.000000e+00
      outer loop
         vertex -1.690000e+01 -6.570000e+01 0.000000e+00
         vertex -1.570000e+01 -6.370000e+01 0.000000e+00
         vertex 1.570000e+01 -6.370000e+01 0.000000e+00
      endloop
   endfacet
   facet normal -0.000000e+00 -0.000000e+00 -1.000000e+00
      outer loop
         vertex -1.770000e+01 6.490000e+01 0.000000e+00
         vertex -1.570000e+01 6.370000e+01 0.000000e+00
         vertex -1.570000e+01 -6.370000e+01 0.000000e+00
      endloop
   endfacet
   facet normal 0.000000e+00 0.000000e+00 -1.000000e+00
      outer loop
         vertex 1.690000e+01 6.570000e+01 0.000000e+00
         vertex 1.570000e+01 6.370000e+01 0.000000e+00
         vertex -1.570000e+01 6.370000e+01 0.000000e+00
      endloop
   endfacet
   facet normal 0.000000e+00 0.000000e+00 -1.000000e+00
      outer loop
         vertex 1.770000e+01 6.490000e+01 0.000000e+00
         vertex 1.570000e+01 -6.370000e+01 0.000000e+00
         vertex 1.570000e+01 6.370000e+01 0.000000e+00
      endloop
   endfacet
   facet normal 0.000000e+00 -0.000000e+00 -1.000000e+00
      outer loop
         vertex -1.770000e+01 6.490000e+01 0.000000e+00
         vertex -1.690000e+01 6.570000e+01 0.000000e+00
         vertex -1.570000e+01 6.370000e+01 0.000000e+00
      endloop
   endfacet
   facet normal 0.000000e+00 0.000000e+00 -1.000000e+00
      outer loop
         vertex -1.690000e+01 -6.570000e+01 0.000000e+00
         vertex -1.770000e+01 -6.490000e+01 0.000000e+00
         vertex -1.570000e+01 -6.370000e+01 0.000000e+00
      endloop
   endfacet
   facet normal 0.000000e+00 0.000000e+00 -1.000000e+00
      outer loop
         vertex -1.690000e+01 -6.570000e+01 0.000000e+00
         vertex -1.737023e+01 -6.554721e+01 0.000000e+00
         vertex -1.770000e+01 -6.490000e+01 0.000000e+00
      endloop
   endfacet
   facet normal 0.000000e+00 0.000000e+00 -1.000000e+00
      outer loop
         vertex 1.770000e+01 -6.490000e+01 0.000000e+00
         vertex 1.690000e+01 -6.570000e+01 0.000000e+00
         vertex 1.570000e+01 -6.370000e+01 0.000000e+00
      endloop
   endfacet
   facet normal -0.000000e+00 -0.000000e+00 -1.000000e+00
      outer loop
         vertex 1.690000e+01 6.570000e+01 0.000000e+00
         vertex 1.737023e+01 6.554721e+01 0.000000e+00
         vertex 1.770000e+01 6.490000e+01 0.000000e+00
      endloop
   endfacet
   facet normal 0.000000e+00 0.000000e+00 -1.000000e+00
      outer loop
         vertex 1.770000e+01 6.490000e+01 0.000000e+00
         vertex 1.570000e+01 6.370000e+01 0.000000e+00
         vertex 1.690000e+01 6.570000e+01 0.000000e+00
      endloop
   endfacet
   facet normal 1.000000e+00 0.000000e+00 0.000000e+00
      outer loop
         vertex -1.610000e+01 -6.410000e+01 3.950000e+01
         vertex -1.610000e+01 -6.410000e+01 2.700000e+01
         vertex -1.610000e+01 6.410000e+01 2.700000e+01
      endloop
   endfacet
   facet normal 1.000000e+00 0.000000e+00 0.000000e+00
      outer loop
         vertex -1.610000e+01 6.410000e+01 2.700000e+01
         vertex -1.610000e+01 6.410000e+01 3.950000e+01
         vertex -1.610000e+01 -6.410000e+01 3.950000e+01
      endloop
   endfacet
   facet normal 0.000000e+00 1.000000e+00 -0.000000e+00
      outer loop
         vertex 1.610000e+01 -6.410000e+01 3.950000e+01
         vertex 1.610000e+01 -6.410000e+01 2.700000e+01
         vertex -1.610000e+01 -6.410000e+01 2.700000e+01
      endloop
   endfacet
   facet normal -0.000000e+00 1.000000e+00 0.000000e+00
      outer loop
         vertex -1.610000e+01 -6.410000e+01 2.700000e+01
         vertex -1.610000e+01 -6.410000e+01 3.950000e+01
         vertex 1.610000e+01 -6.410000e+01 3.950000e+01
      endloop
   endfacet
   facet normal -1.000000e+00 0.000000e+00 0.000000e+00
      outer loop
         vertex 1.610000e+01 6.410000e+01 3.950000e+01
         vertex 1.610000e+01 6.410000e+01 2.700000e+01
         vertex 1.610000e+01 -6.410000e+01 2.700000e+01
      endloop
   endfacet
   facet normal -1.000000e+00 0.000000e+00 0.000000e+00
      outer loop
         vertex 1.610000e+01 -6.410000e+01 2.700000e+01
         vertex 1.610000e+01 -6.410000e+01 3.950000e+01
         vertex 1.610000e+01 6.410000e+01 3.950000e+01
      endloop
   endfacet
   facet normal 0.000000e+00 -1.000000e+00 0.000000e+00
      outer loop
         vertex -1.610000e+01 6.410000e+01 3.950000e+01
         vertex -1.610000e+01 6.410000e+01 2.700000e+01
         vertex 1.610000e+01 6.410000e+01 2.700000e+01
      endloop
   endfacet
   facet normal -0.000000e+00 -1.000000e+00 -0.000000e+00
      outer loop
         vertex 1.610000e+01 6.410000e+01 2.700000e+01
         vertex 1.610000e+01 6.410000e+01 3.950000e+01
         vertex -1.610000e+01 6.410000e+01 3.950000e+01
      endloop
   endfacet
   facet normal 0.000000e+00 0.000000e+00 1.000000e+00
      outer loop
         vertex 1.610000e+01 -6.410000e+01 2.700000e+01
         vertex 1.610000e+01 6.410000e+01 2.700000e+01
         vertex 1.570000e+01 -6.370000e+01 2.700000e+01
      endloop
   endfacet
   facet normal -0.000000e+00 0.000000e+00 1.000000e+00
      outer loop
         vertex 1.610000e+01 6.410000e+01 2.700000e+01
         vertex -1.610000e+01 6.410000e+01 2.700000e+01
         vertex 1.570000e+01 6.370000e+01 2.700000e+01
      endloop
   endfacet
   facet normal 0.000000e+00 0.000000e+00 1.000000e+00
      outer loop
         vertex -1.610000e+01 6.410000e+01 2.700000e+01
         vertex -1.610000e+01 -6.410000e+01 2.700000e+01
         vertex -1.570000e+01 6.370000e+01 2.700000e+01
      endloop
   endfacet
   facet normal 0.000000e+00 0.000000e+00 1.000000e+00
      outer loop
         vertex -1.610000e+01 -6.410000e+01 2.700000e+01
         vertex 1.610000e+01 -6.410000e+01 2.700000e+01
         vertex -1.570000e+01 -6.370000e+01 2.700000e+01
      endloop
   endfacet
   facet normal 0.000000e+00 0.000000e+00 1.000000e+00
      outer loop
         vertex -1.570000e+01 6.370000e+01 2.700000e+01
         vertex 1.570000e+01 6.370000e+01 2.700000e+01
         vertex -1.610000e+01 6.410000e+01 2.700000e+01
      endloop
   endfacet
   facet normal 0.000000e+00 0.000000e+00 1.000000e+00
      outer loop
         vertex 1.570000e+01 6.370000e+01 2.700000e+01
         vertex 1.570000e+01 -6.370000e+01 2.700000e+01
         vertex 1.610000e+01 6.410000e+01 2.700000e+01
      endloop
   endfacet
   facet normal -0.000000e+00 0.000000e+00 1.000000e+00
      outer loop
         vertex 1.570000e+01 -6.370000e+01 2.700000e+01
         vertex -1.570000e+01 -6.370000e+01 2.700000e+01
         vertex 1.610000e+01 -6.410000e+01 2.700000e+01
      endloop
   endfacet
   facet normal 0.000000e+00 0.000000e+00 1.000000e+00
      outer loop
         vertex -1.570000e+01 -6.370000e+01 2.700000e+01
         vertex -1.570000e+01 6.370000e+01 2.700000e+01
         vertex -1.610000e+01 -6.410000e+01 2.700000e+01
      endloop
   endfacet
   facet normal 1.564317e-01 9.876888e-01 -0.000000e+00
      outer loop
         vertex 1.714721e+01 6.566084e+01 3.950000e+01
         vertex 1.714721e+01 6.566084e+01 0.000000e+00
         vertex 1.690000e+01 6.570000e+01 0.000000e+00
      endloop
   endfacet
   facet normal 1.564317e-01 9.876888e-01 0.000000e+00
      outer loop
         vertex 1.690000e+01 6.570000e+01 3.950000e+01
         vertex 1.714721e+01 6.566084e+01 3.950000e+01
         vertex 1.690000e+01 6.570000e+01 0.000000e+00
      endloop
   endfacet
   facet normal 4.539920e-01 8.910058e-01 -0.000000e+00
      outer loop
         vertex 1.737023e+01 6.554721e+01 3.950000e+01
         vertex 1.737023e+01 6.554721e+01 0.000000e+00
         vertex 1.714721e+01 6.566084e+01 0.000000e+00
      endloop
   endfacet
   facet normal 4.539920e-01 8.910058e-01 0.000000e+00
      outer loop
         vertex 1.714721e+01 6.566084e+01 3.950000e+01
         vertex 1.737023e+01 6.554721e+01 3.950000e+01
         vertex 1.714721e+01 6.566084e+01 0.000000e+00
      endloop
   endfacet
   facet normal 7.070915e-01 7.071220e-01 -0.000000e+00
      outer loop
         vertex 1.754721e+01 6.537023e+01 3.950000e+01
         vertex 1.754721e+01 6.537023e+01 0.000000e+00
         vertex 1.737023e+01 6.554721e+01 0.000000e+00
      endloop
   endfacet
   facet normal 7.070915e-01 7.071220e-01 0.000000e+00
      outer loop
         vertex 1.737023e+01 6.554721e+01 3.950000e+01
         vertex 1.754721e+01 6.537023e+01 3.950000e+01
         vertex 1.737023e+01 6.554721e+01 0.000000e+00
      endloop
   endfacet
   facet normal 8.910088e-01 4.539859e-01 -0.000000e+00
      outer loop
         vertex 1.766084e+01 6.514722e+01 3.950000e+01
         vertex 1.766084e+01 6.514722e+01 0.000000e+00
         vertex 1.754721e+01 6.537023e+01 0.000000e+00
      endloop
   endfacet
   facet normal 8.910088e-01 4.539859e-01 0.000000e+00
      outer loop
         vertex 1.754721e+01 6.537023e+01 3.950000e+01
         vertex 1.766084e+01 6.514722e+01 3.950000e+01
         vertex 1.754721e+01 6.537023e+01 0.000000e+00
      endloop
   endfacet
   facet normal 9.876878e-01 1.564380e-01 -0.000000e+00
      outer loop
         vertex 1.770000e+01 6.490000e+01 3.950000e+01
         vertex 1.770000e+01 6.490000e+01 0.000000e+00
         vertex 1.766084e+01 6.514722e+01 0.000000e+00
      endloop
   endfacet
   facet normal 9.876878e-01 1.564380e-01 0.000000e+00
      outer loop
         vertex 1.766084e+01 6.514722e+01 3.950000e+01
         vertex 1.770000e+01 6.490000e+01 3.950000e+01
         vertex 1.766084e+01 6.514722e+01 0.000000e+00
      endloop
   endfacet
   facet normal 1.000000e+00 0.000000e+00 0.000000e+00
      outer loop
         vertex 1.770000e+01 6.490000e+01 0.000000e+00
         vertex 1.770000e+01 6.490000e+01 3.950000e+01
         vertex 1.770000e+01 -6.490000e+01 3.950000e+01
      endloop
   endfacet
   facet normal 1.000000e+00 0.000000e+00 0.000000e+00
      outer loop
         vertex 1.770000e+01 -6.490000e+01 3.950000e+01
         vertex 1.770000e+01 -6.490000e+01 0.000000e+00
         vertex 1.770000e+01 6.490000e+01 0.000000e+00
      endloop
   endfacet
   facet normal 9.876878e-01 -1.564380e-01 0.000000e+00
      outer loop
         vertex 1.766084e+01 -6.514722e+01 3.950000e+01
         vertex 1.766084e+01 -6.514722e+01 0.000000e+00
         vertex 1.770000e+01 -6.490000e+01 0.000000e+00
      endloop
   endfacet
   facet normal 9.876878e-01 -1.564380e-01 0.000000e+00
      outer loop
         vertex 1.770000e+01 -6.490000e+01 3.950000e+01
         vertex 1.766084e+01 -6.514722e+01 3.950000e+01
         vertex 1.770000e+01 -6.490000e+01 0.000000e+00
      endloop
   endfacet
   facet normal 8.910088e-01 -4.539859e-01 0.000000e+00
      outer loop
         vertex 1.754721e+01 -6.537023e+01 3.950000e+01
         vertex 1.754721e+01 -6.537023e+01 0.000000e+00
         vertex 1.766084e+01 -6.514722e+01 0.000000e+00
      endloop
   endfacet
   facet normal 8.910088e-01 -4.539859e-01 0.000000e+00
      outer loop
         vertex 1.766084e+01 -6.514722e+01 3.950000e+01
         vertex 1.754721e+01 -6.537023e+01 3.950000e+01
         vertex 1.766084e+01 -6.514722e+01 0.000000e+00
      endloop
   endfacet
   facet normal 7.070915e-01 -7.071220e-01 0.000000e+00
      outer loop
         vertex 1.737023e+01 -6.554721e+01 3.950000e+01
         vertex 1.737023e+01 -6.554721e+01 0.000000e+00
         vertex 1.754721e+01 -6.537023e+01 0.000000e+00
      endloop
   endfacet
   facet normal 7.070915e-01 -7.071220e-01 0.000000e+00
      outer loop
         vertex 1.754721e+01 -6.537023e+01 3.950000e+01
         vertex 1.737023e+01 -6.554721e+01 3.950000e+01
         vertex 1.754721e+01 -6.537023e+01 0.000000e+00
      endloop
   endfacet
   facet normal 4.539920e-01 -8.910058e-01 0.000000e+00
      outer loop
         vertex 1.714721e+01 -6.566084e+01 3.950000e+01
         vertex 1.714721e+01 -6.566084e+01 0.000000e+00
         vertex 1.737023e+01 -6.554721e+01 0.000000e+00
      endloop
   endfacet
   facet normal 4.539920e-01 -8.910058e-01 0.000000e+00
      outer loop
         vertex 1.737023e+01 -6.554721e+01 3.950000e+01
         vertex 1.714721e+01 -6.566084e+01 3.950000e+01
         vertex 1.737023e+01 -6.554721e+01 0.000000e+00
      endloop
   endfacet
   facet normal 1.564317e-01 -9.876888e-01 0.000000e+00
      outer loop
         vertex 1.690000e+01 -6.570000e+01 3.950000e+01
         vertex 1.690000e+01 -6.570000e+01 0.000000e+00
         vertex 1.714721e+01 -6.566084e+01 0.000000e+00
      endloop
   endfacet
   facet normal 1.564317e-01 -9.876888e-01 0.000000e+00
      outer loop
         vertex 1.714721e+01 -6.566084e+01 3.950000e+01
         vertex 1.690000e+01 -6.570000e+01 3.950000e+01
         vertex 1.714721e+01 -6.566084e+01 0.000000e+00
      endloop
   endfacet
   facet normal -0.000000e+00 -1.000000e+00 -0.000000e+00
      outer loop
         vertex 1.690000e+01 -6.570000e+01 0.000000e+00
         vertex 1.690000e+01 -6.570000e+01 3.950000e+01
         vertex -1.690000e+01 -6.570000e+01 3.950000e+01
      endloop
   endfacet
   facet normal 0.000000e+00 -1.000000e+00 0.000000e+00
      outer loop
         vertex -1.690000e+01 -6.570000e+01 3.950000e+01
         vertex -1.690000e+01 -6.570000e+01 0.000000e+00
         vertex 1.690000e+01 -6.570000e+01 0.000000e+00
      endloop
   endfacet
   facet normal -1.564317e-01 -9.876888e-01 0.000000e+00
      outer loop
         vertex -1.714721e+01 -6.566084e+01 3.950000e+01
         vertex -1.714721e+01 -6.566084e+01 0.000000e+00
         vertex -1.690000e+01 -6.570000e+01 0.000000e+00
      endloop
   endfacet
   facet normal -1.564317e-01 -9.876888e-01 0.000000e+00
      outer loop
         vertex -1.690000e+01 -6.570000e+01 3.950000e+01
         vertex -1.714721e+01 -6.566084e+01 3.950000e+01
         vertex -1.690000e+01 -6.570000e+01 0.000000e+00
      endloop
   endfacet
   facet normal -4.539920e-01 -8.910058e-01 0.000000e+00
      outer loop
         vertex -1.737023e+01 -6.554721e+01 3.950000e+01
         vertex -1.737023e+01 -6.554721e+01 0.000000e+00
         vertex -1.714721e+01 -6.566084e+01 0.000000e+00
      endloop
   endfacet
   facet normal -4.539920e-01 -8.910058e-01 0.000000e+00
      outer loop
         vertex -1.714721e+01 -6.566084e+01 3.950000e+01
         vertex -1.737023e+01 -6.554721e+01 3.950000e+01
         vertex -1.714721e+01 -6.566084e+01 0.000000e+00
      endloop
   endfacet
   facet normal -7.070915e-01 -7.071220e-01 0.000000e+00
      outer loop
         vertex -1.754721e+01 -6.537023e+01 3.950000e+01
         vertex -1.754721e+01 -6.537023e+01 0.000000e+00
         vertex -1.737023e+01 -6.554721e+01 0.000000e+00
      endloop
   endfacet
   facet normal -7.070915e-01 -7.071220e-01 0.000000e+00
      outer loop
         vertex -1.737023e+01 -6.554721e+01 3.950000e+01
         vertex -1.754721e+01 -6.537023e+01 3.950000e+01
         vertex -1.737023e+01 -6.554721e+01 0.000000e+00
      endloop
   endfacet
   facet normal -8.910088e-01 -4.539859e-01 0.000000e+00
      outer loop
         vertex -1.766084e+01 -6.514722e+01 3.950000e+01
         vertex -1.766084e+01 -6.514722e+01 0.000000e+00
         vertex -1.754721e+01 -6.537023e+01 0.000000e+00
      endloop
   endfacet
   facet normal -8.910088e-01 -4.539859e-01 0.000000e+00
      outer loop
         vertex -1.754721e+01 -6.537023e+01 3.950000e+01
         vertex -1.766084e+01 -6.514722e+01 3.950000e+01
         vertex -1.754721e+01 -6.537023e+01 0.000000e+00
      endloop
   endfacet
   facet normal -9.876878e-01 -1.564380e-01 0.000000e+00
      outer loop
         vertex -1.770000e+01 -6.490000e+01 3.950000e+01
         vertex -1.770000e+01 -6.490000e+01 0.000000e+00
         vertex -1.766084e+01 -6.514722e+01 0.000000e+00
      endloop
   endfacet
   facet normal -9.876878e-01 -1.564380e-01 0.000000e+00
      outer loop
         vertex -1.766084e+01 -6.514722e+01 3.950000e+01
         vertex -1.770000e+01 -6.490000e+01 3.950000e+01
         vertex -1.766084e+01 -6.514722e+01 0.000000e+00
      endloop
   endfacet
   facet normal -1.000000e+00 0.000000e+00 0.000000e+00
      outer loop
         vertex -1.770000e+01 -6.490000e+01 0.000000e+00
         vertex -1.770000e+01 -6.490000e+01 3.950000e+01
         vertex -1.770000e+01 6.490000e+01 3.950000e+01
      endloop
   endfacet
   facet normal -1.000000e+00 0.000000e+00 0.000000e+00
      outer loop
         vertex -1.770000e+01 6.490000e+01 3.950000e+01
         vertex -1.770000e+01 6.490000e+01 0.000000e+00
         vertex -1.770000e+01 -6.490000e+01 0.000000e+00
      endloop
   endfacet
   facet normal -9.876878e-01 1.564380e-01 0.000000e+00
      outer loop
         vertex -1.766084e+01 6.514722e+01 3.950000e+01
         vertex -1.766084e+01 6.514722e+01 0.000000e+00
         vertex -1.770000e+01 6.490000e+01 0.000000e+00
      endloop
   endfacet
   facet normal -9.876878e-01 1.564380e-01 0.000000e+00
      outer loop
         vertex -1.770000e+01 6.490000e+01 3.950000e+01
         vertex -1.766084e+01 6.514722e+01 3.950000e+01
         vertex -1.770000e+01 6.490000e+01 0.000000e+00
      endloop
   endfacet
   facet normal -8.910088e-01 4.539859e-01 0.000000e+00
      outer loop
         vertex -1.754721e+01 6.537023e+01 3.950000e+01
         vertex -1.754721e+01 6.537023e+01 0.000000e+00
         vertex -1.766084e+01 6.514722e+01 0.000000e+00
      endloop
   endfacet
   facet normal -8.910088e-01 4.539859e-01 0.000000e+00
      outer loop
         vertex -1.766084e+01 6.514722e+01 3.950000e+01
         vertex -1.754721e+01 6.537023e+01 3.950000e+01
         vertex -1.766084e+01 6.514722e+01 0.000000e+00
      endloop
   endfacet
   facet normal -7.070915e-01 7.071220e-01 0.000000e+00
      outer loop
         vertex -1.737023e+01 6.554721e+01 3.950000e+01
         vertex -1.737023e+01 6.554721e+01 0.000000e+00
         vertex -1.754721e+01 6.537023e+01 0.000000e+00
      endloop
   endfacet
   facet normal -7.070915e-01 7.071220e-01 0.000000e+00
      outer loop
         vertex -1.754721e+01 6.537023e+01 3.950000e+01
         vertex -1.737023e+01 6.554721e+01 3.950000e+01
         vertex -1.754721e+01 6.537023e+01 0.000000e+00
      endloop
   endfacet
   facet normal -4.539920e-01 8.910058e-01 0.000000e+00
      outer loop
         vertex -1.714721e+01 6.566084e+01 3.950000e+01
         vertex -1.714721e+01 6.566084e+01 0.000000e+00
         vertex -1.737023e+01 6.554721e+01 0.000000e+00
      endloop
   endfacet
   facet normal -4.539920e-01 8.910058e-01 0.000000e+00
      outer loop
         vertex -1.737023e+01 6.554721e+01 3.950000e+01
         vertex -1.714721e+01 6.566084e+01 3.950000e+01
         vertex -1.737023e+01 6.554721e+01 0.000000e+00
      endloop
   endfacet
   facet normal -1.564317e-01 9.876888e-01 0.000000e+00
      outer loop
         vertex -1.690000e+01 6.570000e+01 3.950000e+01
         vertex -1.690000e+01 6.570000e+01 0.000000e+00
         vertex -1.714721e+01 6.566084e+01 0.000000e+00
      endloop
   endfacet
   facet normal -1.564317e-01 9.876888e-01 0.000000e+00
      outer loop
         vertex -1.714721e+01 6.566084e+01 3.950000e+01
         vertex -1.690000e+01 6.570000e+01 3.950000e+01
         vertex -1.714721e+01 6.566084e+01 0.000000e+00
      endloop
   endfacet
   facet normal -0.000000e+00 1.000000e+00 0.000000e+00
      outer loop
         vertex -1.690000e+01 6.570000e+01 0.000000e+00
         vertex -1.690000e+01 6.570000e+01 3.950000e+01
         vertex 1.690000e+01 6.570000e+01 3.950000e+01
      endloop
   endfacet
   facet normal 0.000000e+00 1.000000e+00 -0.000000e+00
      outer loop
         vertex 1.690000e+01 6.570000e+01 3.950000e+01
         vertex 1.690000e+01 6.570000e+01 0.000000e+00
         vertex -1.690000e+01 6.570000e+01 0.000000e+00
      endloop
   endfacet
   facet normal -1.000000e+00 0.000000e+00 0.000000e+00
      outer loop
         vertex 1.570000e+01 6.370000e+01 0.000000e+00
         vertex 1.570000e+01 -6.370000e+01 0.000000e+00
         vertex 1.570000e+01 -6.370000e+01 2.700000e+01
      endloop
   endfacet
   facet normal -1.000000e+00 -0.000000e+00 -0.000000e+00
      outer loop
         vertex 1.570000e+01 -6.370000e+01 2.700000e+01
         vertex 1.570000e+01 6.370000e+01 2.700000e+01
         vertex 1.570000e+01 6.370000e+01 0.000000e+00
      endloop
   endfacet
   facet normal 0.000000e+00 -1.000000e+00 0.000000e+00
      outer loop
         vertex -1.570000e+01 6.370000e+01 0.000000e+00
         vertex 1.570000e+01 6.370000e+01 0.000000e+00
         vertex 1.570000e+01 6.370000e+01 2.700000e+01
      endloop
   endfacet
   facet normal 0.000000e+00 -1.000000e+00 0.000000e+00
      outer loop
         vertex 1.570000e+01 6.370000e+01 2.700000e+01
         vertex -1.570000e+01 6.370000e+01 2.700000e+01
         vertex -1.570000e+01 6.370000e+01 0.000000e+00
      endloop
   endfacet
   facet normal 1.000000e+00 0.000000e+00 -0.000000e+00
      outer loop
         vertex -1.570000e+01 -6.370000e+01 0.000000e+00
         vertex -1.570000e+01 6.370000e+01 0.000000e+00
         vertex -1.570000e+01 6.370000e+01 2.700000e+01
      endloop
   endfacet
   facet normal 1.000000e+00 -0.000000e+00 0.000000e+00
      outer loop
         vertex -1.570000e+01 6.370000e+01 2.700000e+01
         vertex -1.570000e+01 -6.370000e+01 2.700000e+01
         vertex -1.570000e+01 -6.370000e+01 0.000000e+00
      endloop
   endfacet
   facet normal 0.000000e+00 1.000000e+00 0.000000e+00
      outer loop
         vertex 1.570000e+01 -6.370000e+01 0.000000e+00
         vertex -1.570000e+01 -6.370000e+01 0.000000e+00
         vertex -1.570000e+01 -6.370000e+01 2.700000e+01
      endloop
   endfacet
   facet normal 0.000000e+00 1.000000e+00 0.000000e+00
      outer loop
         vertex -1.570000e+01 -6.370000e+01 2.700000e+01
         vertex 1.570000e+01 -6.370000e+01 2.700000e+01
         vertex 1.570000e+01 -6.370000e+01 0.000000e+00
      endloop
   endfacet
   facet normal 9.800663e-01 -0.000000e+00 1.986707e-01
      outer loop
         vertex -1.613947e+01 -6.413947e+01 3.969471e+01
         vertex -1.610000e+01 -6.410000e+01 3.950000e+01
         vertex -1.610000e+01 6.410000e+01 3.950000e+01
      endloop
   endfacet
   facet normal 9.800663e-01 0.000000e+00 1.986707e-01
      outer loop
         vertex -1.610000e+01 6.410000e+01 3.950000e+01
         vertex -1.613947e+01 6.413947e+01 3.969471e+01
         vertex -1.613947e+01 -6.413947e+01 3.969471e+01
      endloop
   endfacet
   facet normal 8.252894e-01 0.000000e+00 5.647101e-01
      outer loop
         vertex -1.613947e+01 6.413947e+01 3.969471e+01
         vertex -1.625170e+01 6.425170e+01 3.985873e+01
         vertex -1.613947e+01 -6.413947e+01 3.969471e+01
      endloop
   endfacet
   facet normal 5.400552e-01 0.000000e+00 8.416296e-01
      outer loop
         vertex -1.625170e+01 6.425170e+01 3.985873e+01
         vertex -1.641902e+01 6.441901e+01 3.996609e+01
         vertex -1.641902e+01 -6.441901e+01 3.996609e+01
      endloop
   endfacet
   facet normal 1.841334e-01 0.000000e+00 9.829013e-01
      outer loop
         vertex -1.641902e+01 6.441901e+01 3.996609e+01
         vertex -1.660000e+01 6.460000e+01 4.000000e+01
         vertex -1.660000e+01 -6.460000e+01 4.000000e+01
      endloop
   endfacet
   facet normal 1.841334e-01 -0.000000e+00 9.829013e-01
      outer loop
         vertex -1.660000e+01 -6.460000e+01 4.000000e+01
         vertex -1.641902e+01 -6.441901e+01 3.996609e+01
         vertex -1.641902e+01 6.441901e+01 3.996609e+01
      endloop
   endfacet
   facet normal 5.400552e-01 -0.000000e+00 8.416296e-01
      outer loop
         vertex -1.641902e+01 -6.441901e+01 3.996609e+01
         vertex -1.625170e+01 -6.425170e+01 3.985873e+01
         vertex -1.625170e+01 6.425170e+01 3.985873e+01
      endloop
   endfacet
   facet normal 8.252894e-01 0.000000e+00 5.647101e-01
      outer loop
         vertex -1.625170e+01 -6.425170e+01 3.985873e+01
         vertex -1.613947e+01 -6.413947e+01 3.969471e+01
         vertex -1.625170e+01 6.425170e+01 3.985873e+01
      endloop
   endfacet
   facet normal 0.000000e+00 9.800626e-01 1.986891e-01
      outer loop
         vertex 1.613947e+01 -6.413947e+01 3.969471e+01
         vertex 1.610000e+01 -6.410000e+01 3.950000e+01
         vertex -1.610000e+01 -6.410000e+01 3.950000e+01
      endloop
   endfacet
   facet normal -0.000000e+00 9.800626e-01 1.986891e-01
      outer loop
         vertex -1.610000e+01 -6.410000e+01 3.950000e+01
         vertex -1.613947e+01 -6.413947e+01 3.969471e+01
         vertex 1.613947e+01 -6.413947e+01 3.969471e+01
      endloop
   endfacet
   facet normal 0.000000e+00 8.252983e-01 5.646970e-01
      outer loop
         vertex -1.613947e+01 -6.413947e+01 3.969471e+01
         vertex -1.625170e+01 -6.425170e+01 3.985873e+01
         vertex 1.613947e+01 -6.413947e+01 3.969471e+01
      endloop
   endfacet
   facet normal -0.000000e+00 5.400552e-01 8.416296e-01
      outer loop
         vertex -1.625170e+01 -6.425170e+01 3.985873e+01
         vertex -1.641902e+01 -6.441901e+01 3.996609e+01
         vertex 1.641902e+01 -6.441901e+01 3.996609e+01
      endloop
   endfacet
   facet normal -0.000000e+00 1.841334e-01 9.829013e-01
      outer loop
         vertex -1.641902e+01 -6.441901e+01 3.996609e+01
         vertex -1.660000e+01 -6.460000e+01 4.000000e+01
         vertex 1.660000e+01 -6.460000e+01 4.000000e+01
      endloop
   endfacet
   facet normal 0.000000e+00 1.841334e-01 9.829013e-01
      outer loop
         vertex 1.660000e+01 -6.460000e+01 4.000000e+01
         vertex 1.641902e+01 -6.441901e+01 3.996609e+01
         vertex -1.641902e+01 -6.441901e+01 3.996609e+01
      endloop
   endfacet
   facet normal 0.000000e+00 5.400552e-01 8.416296e-01
      outer loop
         vertex 1.641902e+01 -6.441901e+01 3.996609e+01
         vertex 1.625170e+01 -6.425170e+01 3.985873e+01
         vertex -1.625170e+01 -6.425170e+01 3.985873e+01
      endloop
   endfacet
   facet normal 0.000000e+00 8.252983e-01 5.646970e-01
      outer loop
         vertex 1.625170e+01 -6.425170e+01 3.985873e+01
         vertex 1.613947e+01 -6.413947e+01 3.969471e+01
         vertex -1.625170e+01 -6.425170e+01 3.985873e+01
      endloop
   endfacet
   facet normal -9.800663e-01 0.000000e+00 1.986707e-01
      outer loop
         vertex 1.613947e+01 6.413947e+01 3.969471e+01
         vertex 1.610000e+01 6.410000e+01 3.950000e+01
         vertex 1.610000e+01 -6.410000e+01 3.950000e+01
      endloop
   endfacet
   facet normal -9.800663e-01 0.000000e+00 1.986707e-01
      outer loop
         vertex 1.610000e+01 -6.410000e+01 3.950000e+01
         vertex 1.613947e+01 -6.413947e+01 3.969471e+01
         vertex 1.613947e+01 6.413947e+01 3.969471e+01
      endloop
   endfacet
   facet normal -8.252894e-01 0.000000e+00 5.647101e-01
      outer loop
         vertex 1.613947e+01 -6.413947e+01 3.969471e+01
         vertex 1.625170e+01 -6.425170e+01 3.985873e+01
         vertex 1.613947e+01 6.413947e+01 3.969471e+01
      endloop
   endfacet
   facet normal -5.400552e-01 0.000000e+00 8.416296e-01
      outer loop
         vertex 1.625170e+01 -6.425170e+01 3.985873e+01
         vertex 1.641902e+01 -6.441901e+01 3.996609e+01
         vertex 1.641902e+01 6.441901e+01 3.996609e+01
      endloop
   endfacet
   facet normal -1.841334e-01 0.000000e+00 9.829013e-01
      outer loop
         vertex 1.641902e+01 -6.441901e+01 3.996609e+01
         vertex 1.660000e+01 -6.460000e+01 4.000000e+01
         vertex 1.660000e+01 6.460000e+01 4.000000e+01
      endloop
   endfacet
   facet normal -1.841334e-01 0.000000e+00 9.829013e-01
      outer loop
         vertex 1.660000e+01 6.460000e+01 4.000000e+01
         vertex 1.641902e+01 6.441901e+01 3.996609e+01
         vertex 1.641902e+01 -6.441901e+01 3.996609e+01
      endloop
   endfacet
   facet normal -5.400552e-01 0.000000e+00 8.416296e-01
      outer loop
         vertex 1.641902e+01 6.441901e+01 3.996609e+01
         vertex 1.625170e+01 6.425170e+01 3.985873e+01
         vertex 1.625170e+01 -6.425170e+01 3.985873e+01
      endloop
   endfacet
   facet normal -8.252894e-01 0.000000e+00 5.647101e-01
      outer loop
         vertex 1.625170e+01 6.425170e+01 3.985873e+01
         vertex 1.613947e+01 6.413947e+01 3.969471e+01
         vertex 1.625170e+01 -6.425170e+01 3.985873e+01
      endloop
   endfacet
   facet normal 0.000000e+00 -9.800626e-01 1.986891e-01
      outer loop
         vertex -1.613947e+01 6.413947e+01 3.969471e+01
         vertex -1.610000e+01 6.410000e+01 3.950000e+01
         vertex 1.610000e+01 6.410000e+01 3.950000e+01
      endloop
   endfacet
   facet normal 0.000000e+00 -9.800626e-01 1.986891e-01
      outer loop
         vertex 1.610000e+01 6.410000e+01 3.950000e+01
         vertex 1.613947e+01 6.413947e+01 3.969471e+01
         vertex -1.613947e+01 6.413947e+01 3.969471e+01
      endloop
   endfacet
   facet normal 0.000000e+00 -8.252983e-01 5.646970e-01
      outer loop
         vertex 1.613947e+01 6.413947e+01 3.969471e+01
         vertex 1.625170e+01 6.425170e+01 3.985873e+01
         vertex -1.613947e+01 6.413947e+01 3.969471e+01
      endloop
   endfacet
   facet normal 0.000000e+00 -5.400552e-01 8.416296e-01
      outer loop
         vertex 1.625170e+01 6.425170e+01 3.985873e+01
         vertex 1.641902e+01 6.441901e+01 3.996609e+01
         vertex -1.641902e+01 6.441901e+01 3.996609e+01
      endloop
   endfacet
   facet normal 0.000000e+00 -1.841334e-01 9.829013e-01
      outer loop
         vertex 1.641902e+01 6.441901e+01 3.996609e+01
         vertex 1.660000e+01 6.460000e+01 4.000000e+01
         vertex -1.660000e+01 6.460000e+01 4.000000e+01
      endloop
   endfacet
   facet normal 0.000000e+00 -1.841334e-01 9.829013e-01
      outer loop
         vertex -1.660000e+01 6.460000e+01 4.000000e+01
         vertex -1.641902e+01 6.441901e+01 3.996609e+01
         vertex 1.641902e+01 6.441901e+01 3.996609e+01
      endloop
   endfacet
   facet normal 0.000000e+00 -5.400552e-01 8.416296e-01
      outer loop
         vertex -1.641902e+01 6.441901e+01 3.996609e+01
         vertex -1.625170e+01 6.425170e+01 3.985873e+01
         vertex 1.625170e+01 6.425170e+01 3.985873e+01
      endloop
   endfacet
   facet normal 0.000000e+00 -8.252983e-01 5.646970e-01
      outer loop
         vertex -1.625170e+01 6.425170e+01 3.985873e+01
         vertex -1.613947e+01 6.413947e+01 3.969471e+01
         vertex 1.625170e+01 6.425170e+01 3.985873e+01
      endloop
   endfacet
   facet normal 4.992625e-01 2.543867e-01 8.282659e-01
      outer loop
         vertex 1.742874e+01 6.528415e+01 3.985355e+01
         vertex 1.729750e+01 6.518880e+01 3.996194e+01
         vertex 1.736729e+01 6.505183e+01 3.996194e+01
      endloop
   endfacet
   facet normal 4.992615e-01 2.543871e-01 8.282663e-01
      outer loop
         vertex 1.752157e+01 6.510196e+01 3.985355e+01
         vertex 1.742874e+01 6.528415e+01 3.985355e+01
         vertex 1.736729e+01 6.505183e+01 3.996194e+01
      endloop
   endfacet
   facet normal 3.962010e-01 3.962218e-01 8.282711e-01
      outer loop
         vertex 1.728415e+01 6.542873e+01 3.985355e+01
         vertex 1.718880e+01 6.529750e+01 3.996194e+01
         vertex 1.729750e+01 6.518880e+01 3.996194e+01
      endloop
   endfacet
   facet normal 3.962148e-01 3.962200e-01 8.282654e-01
      outer loop
         vertex 1.742874e+01 6.528415e+01 3.985355e+01
         vertex 1.728415e+01 6.542873e+01 3.985355e+01
         vertex 1.729750e+01 6.518880e+01 3.996194e+01
      endloop
   endfacet
   facet normal 2.543952e-01 4.992519e-01 8.282697e-01
      outer loop
         vertex 1.710196e+01 6.552157e+01 3.985355e+01
         vertex 1.705183e+01 6.536729e+01 3.996194e+01
         vertex 1.718880e+01 6.529750e+01 3.996194e+01
      endloop
   endfacet
   facet normal 2.543924e-01 4.992514e-01 8.282708e-01
      outer loop
         vertex 1.728415e+01 6.542873e+01 3.985355e+01
         vertex 1.710196e+01 6.552157e+01 3.985355e+01
         vertex 1.718880e+01 6.529750e+01 3.996194e+01
      endloop
   endfacet
   facet normal 7.436614e-01 3.789154e-01 5.508092e-01
      outer loop
         vertex 1.751642e+01 6.534785e+01 3.969134e+01
         vertex 1.742874e+01 6.528415e+01 3.985355e+01
         vertex 1.752157e+01 6.510196e+01 3.985355e+01
      endloop
   endfacet
   facet normal 7.436608e-01 3.789158e-01 5.508098e-01
      outer loop
         vertex 1.762465e+01 6.513545e+01 3.969134e+01
         vertex 1.751642e+01 6.534785e+01 3.969134e+01
         vertex 1.752157e+01 6.510196e+01 3.985355e+01
      endloop
   endfacet
   facet normal 5.901704e-01 5.901782e-01 5.508072e-01
      outer loop
         vertex 1.734786e+01 6.551642e+01 3.969134e+01
         vertex 1.728415e+01 6.542873e+01 3.985355e+01
         vertex 1.742874e+01 6.528415e+01 3.985355e+01
      endloop
   endfacet
   facet normal 5.901713e-01 5.901780e-01 5.508065e-01
      outer loop
         vertex 1.751642e+01 6.534785e+01 3.969134e+01
         vertex 1.734786e+01 6.551642e+01 3.969134e+01
         vertex 1.742874e+01 6.528415e+01 3.985355e+01
      endloop
   endfacet
   facet normal 3.789279e-01 7.436554e-01 5.508088e-01
      outer loop
         vertex 1.713545e+01 6.562465e+01 3.969134e+01
         vertex 1.710196e+01 6.552157e+01 3.985355e+01
         vertex 1.728415e+01 6.542873e+01 3.985355e+01
      endloop
   endfacet
   facet normal 3.789297e-01 7.436555e-01 5.508074e-01
      outer loop
         vertex 1.734786e+01 6.551642e+01 3.969134e+01
         vertex 1.713545e+01 6.562465e+01 3.969134e+01
         vertex 1.728415e+01 6.542873e+01 3.985355e+01
      endloop
   endfacet
   facet normal 3.088312e-02 1.949889e-01 9.803191e-01
      outer loop
         vertex 1.705183e+01 6.536729e+01 3.996194e+01
         vertex 1.690000e+01 6.539134e+01 3.996194e+01
         vertex 1.690000e+01 6.520000e+01 4.000000e+01
      endloop
   endfacet
   facet normal 8.765624e-02 5.534413e-01 8.282627e-01
      outer loop
         vertex 1.705183e+01 6.536729e+01 3.996194e+01
         vertex 1.690000e+01 6.555355e+01 3.985355e+01
         vertex 1.690000e+01 6.539134e+01 3.996194e+01
      endloop
   endfacet
   facet normal 1.305437e-01 8.243450e-01 5.508299e-01
      outer loop
         vertex 1.710196e+01 6.552157e+01 3.985355e+01
         vertex 1.690000e+01 6.566194e+01 3.969134e+01
         vertex 1.690000e+01 6.555355e+01 3.985355e+01
      endloop
   endfacet
   facet normal 1.534982e-01 9.691665e-01 1.927551e-01
      outer loop
         vertex 1.714721e+01 6.566084e+01 3.950000e+01
         vertex 1.690000e+01 6.570000e+01 3.950000e+01
         vertex 1.690000e+01 6.566194e+01 3.969134e+01
      endloop
   endfacet
   facet normal 4.454758e-01 8.742918e-01 1.927825e-01
      outer loop
         vertex 1.734786e+01 6.551642e+01 3.969134e+01
         vertex 1.737023e+01 6.554721e+01 3.950000e+01
         vertex 1.714721e+01 6.566084e+01 3.950000e+01
      endloop
   endfacet
   facet normal 6.938250e-01 6.938549e-01 1.928011e-01
      outer loop
         vertex 1.751642e+01 6.534785e+01 3.969134e+01
         vertex 1.754721e+01 6.537023e+01 3.950000e+01
         vertex 1.737023e+01 6.554721e+01 3.950000e+01
      endloop
   endfacet
   facet normal 8.742941e-01 4.454694e-01 1.927870e-01
      outer loop
         vertex 1.762465e+01 6.513545e+01 3.969134e+01
         vertex 1.766084e+01 6.514722e+01 3.950000e+01
         vertex 1.754721e+01 6.537023e+01 3.950000e+01
      endloop
   endfacet
   facet normal 9.691602e-01 1.535035e-01 1.927829e-01
      outer loop
         vertex 1.766194e+01 6.490000e+01 3.969134e+01
         vertex 1.770000e+01 6.490000e+01 3.950000e+01
         vertex 1.766084e+01 6.514722e+01 3.950000e+01
      endloop
   endfacet
   facet normal 8.243520e-01 1.305616e-01 5.508152e-01
      outer loop
         vertex 1.752157e+01 6.510196e+01 3.985355e+01
         vertex 1.755355e+01 6.490000e+01 3.985355e+01
         vertex 1.766194e+01 6.490000e+01 3.969134e+01
      endloop
   endfacet
   facet normal 5.534368e-01 8.765553e-02 8.282658e-01
      outer loop
         vertex 1.736729e+01 6.505183e+01 3.996194e+01
         vertex 1.739134e+01 6.490000e+01 3.996194e+01
         vertex 1.755355e+01 6.490000e+01 3.985355e+01
      endloop
   endfacet
   facet normal 1.949926e-01 3.088372e-02 9.803183e-01
      outer loop
         vertex 1.736729e+01 6.505183e+01 3.996194e+01
         vertex 1.720000e+01 6.490000e+01 4.000000e+01
         vertex 1.739134e+01 6.490000e+01 3.996194e+01
      endloop
   endfacet
   facet normal 1.797984e-01 4.817777e-02 9.825230e-01
      outer loop
         vertex 1.736729e+01 6.505183e+01 3.996194e+01
         vertex 1.715981e+01 6.505000e+01 4.000000e+01
         vertex 1.720000e+01 6.490000e+01 4.000000e+01
      endloop
   endfacet
   facet normal 1.351074e-01 1.351144e-01 9.815753e-01
      outer loop
         vertex 1.729750e+01 6.518880e+01 3.996194e+01
         vertex 1.705000e+01 6.515981e+01 4.000000e+01
         vertex 1.715981e+01 6.505000e+01 4.000000e+01
      endloop
   endfacet
   facet normal 4.817556e-02 1.797964e-01 9.825235e-01
      outer loop
         vertex 1.705183e+01 6.536729e+01 3.996194e+01
         vertex 1.690000e+01 6.520000e+01 4.000000e+01
         vertex 1.705000e+01 6.515981e+01 4.000000e+01
      endloop
   endfacet
   facet normal 1.788900e-01 9.114890e-02 9.796378e-01
      outer loop
         vertex 1.715981e+01 6.505000e+01 4.000000e+01
         vertex 1.736729e+01 6.505183e+01 3.996194e+01
         vertex 1.729750e+01 6.518880e+01 3.996194e+01
      endloop
   endfacet
   facet normal 9.115261e-02 1.788875e-01 9.796379e-01
      outer loop
         vertex 1.705000e+01 6.515981e+01 4.000000e+01
         vertex 1.718880e+01 6.529750e+01 3.996194e+01
         vertex 1.705183e+01 6.536729e+01 3.996194e+01
      endloop
   endfacet
   facet normal 5.534358e-01 8.765364e-02 8.282667e-01
      outer loop
         vertex 1.755355e+01 6.490000e+01 3.985355e+01
         vertex 1.752157e+01 6.510196e+01 3.985355e+01
         vertex 1.736729e+01 6.505183e+01 3.996194e+01
      endloop
   endfacet
   facet normal 8.764200e-02 5.534335e-01 8.282694e-01
      outer loop
         vertex 1.690000e+01 6.555355e+01 3.985355e+01
         vertex 1.705183e+01 6.536729e+01 3.996194e+01
         vertex 1.710196e+01 6.552157e+01 3.985355e+01
      endloop
   endfacet
   facet normal 8.243546e-01 1.305676e-01 5.508100e-01
      outer loop
         vertex 1.766194e+01 6.490000e+01 3.969134e+01
         vertex 1.762465e+01 6.513545e+01 3.969134e+01
         vertex 1.752157e+01 6.510196e+01 3.985355e+01
      endloop
   endfacet
   facet normal 1.305665e-01 8.243548e-01 5.508099e-01
      outer loop
         vertex 1.690000e+01 6.566194e+01 3.969134e+01
         vertex 1.710196e+01 6.552157e+01 3.985355e+01
         vertex 1.713545e+01 6.562465e+01 3.969134e+01
      endloop
   endfacet
   facet normal 8.742896e-01 4.454747e-01 1.927953e-01
      outer loop
         vertex 1.754721e+01 6.537023e+01 3.950000e+01
         vertex 1.751642e+01 6.534785e+01 3.969134e+01
         vertex 1.762465e+01 6.513545e+01 3.969134e+01
      endloop
   endfacet
   facet normal 6.938387e-01 6.938465e-01 1.927819e-01
      outer loop
         vertex 1.737023e+01 6.554721e+01 3.950000e+01
         vertex 1.734786e+01 6.551642e+01 3.969134e+01
         vertex 1.751642e+01 6.534785e+01 3.969134e+01
      endloop
   endfacet
   facet normal 4.454933e-01 8.742877e-01 1.927610e-01
      outer loop
         vertex 1.714721e+01 6.566084e+01 3.950000e+01
         vertex 1.713545e+01 6.562465e+01 3.969134e+01
         vertex 1.734786e+01 6.551642e+01 3.969134e+01
      endloop
   endfacet
   facet normal 1.535024e-01 9.691648e-01 1.927607e-01
      outer loop
         vertex 1.713545e+01 6.562465e+01 3.969134e+01
         vertex 1.714721e+01 6.566084e+01 3.950000e+01
         vertex 1.690000e+01 6.566194e+01 3.969134e+01
      endloop
   endfacet
   facet normal 9.691604e-01 1.535030e-01 1.927823e-01
      outer loop
         vertex 1.766194e+01 6.490000e+01 3.969134e+01
         vertex 1.766084e+01 6.514722e+01 3.950000e+01
         vertex 1.762465e+01 6.513545e+01 3.969134e+01
      endloop
   endfacet
   facet normal 1.351074e-01 1.351145e-01 9.815753e-01
      outer loop
         vertex 1.718880e+01 6.529750e+01 3.996194e+01
         vertex 1.705000e+01 6.515981e+01 4.000000e+01
         vertex 1.729750e+01 6.518880e+01 3.996194e+01
      endloop
   endfacet
   facet normal 1.950857e-01 -0.000000e+00 9.807862e-01
      outer loop
         vertex 1.720000e+01 -6.490000e+01 4.000000e+01
         vertex 1.739134e+01 -6.490000e+01 3.996194e+01
         vertex 1.739134e+01 6.490000e+01 3.996194e+01
      endloop
   endfacet
   facet normal 1.950857e-01 0.000000e+00 9.807862e-01
      outer loop
         vertex 1.720000e+01 -6.490000e+01 4.000000e+01
         vertex 1.739134e+01 6.490000e+01 3.996194e+01
         vertex 1.720000e+01 6.490000e+01 4.000000e+01
      endloop
   endfacet
   facet normal 5.555753e-01 -0.000000e+00 8.314662e-01
      outer loop
         vertex 1.739134e+01 -6.490000e+01 3.996194e+01
         vertex 1.755355e+01 -6.490000e+01 3.985355e+01
         vertex 1.755355e+01 6.490000e+01 3.985355e+01
      endloop
   endfacet
   facet normal 5.555753e-01 0.000000e+00 8.314662e-01
      outer loop
         vertex 1.739134e+01 -6.490000e+01 3.996194e+01
         vertex 1.755355e+01 6.490000e+01 3.985355e+01
         vertex 1.739134e+01 6.490000e+01 3.996194e+01
      endloop
   endfacet
   facet normal 8.314693e-01 -0.000000e+00 5.555708e-01
      outer loop
         vertex 1.755355e+01 -6.490000e+01 3.985355e+01
         vertex 1.766194e+01 -6.490000e+01 3.969134e+01
         vertex 1.766194e+01 6.490000e+01 3.969134e+01
      endloop
   endfacet
   facet normal 8.314693e-01 0.000000e+00 5.555708e-01
      outer loop
         vertex 1.755355e+01 -6.490000e+01 3.985355e+01
         vertex 1.766194e+01 6.490000e+01 3.969134e+01
         vertex 1.755355e+01 6.490000e+01 3.985355e+01
      endloop
   endfacet
   facet normal 9.807843e-01 -0.000000e+00 1.950951e-01
      outer loop
         vertex 1.766194e+01 -6.490000e+01 3.969134e+01
         vertex 1.770000e+01 -6.490000e+01 3.950000e+01
         vertex 1.770000e+01 6.490000e+01 3.950000e+01
      endloop
   endfacet
   facet normal 9.807843e-01 0.000000e+00 1.950951e-01
      outer loop
         vertex 1.766194e+01 -6.490000e+01 3.969134e+01
         vertex 1.770000e+01 6.490000e+01 3.950000e+01
         vertex 1.766194e+01 6.490000e+01 3.969134e+01
      endloop
   endfacet
   facet normal 2.543943e-01 -4.992502e-01 8.282710e-01
      outer loop
         vertex 1.728415e+01 -6.542873e+01 3.985355e+01
         vertex 1.718880e+01 -6.529750e+01 3.996194e+01
         vertex 1.705183e+01 -6.536729e+01 3.996194e+01
      endloop
   endfacet
   facet normal 2.543931e-01 -4.992527e-01 8.282698e-01
      outer loop
         vertex 1.710196e+01 -6.552157e+01 3.985355e+01
         vertex 1.728415e+01 -6.542873e+01 3.985355e+01
         vertex 1.705183e+01 -6.536729e+01 3.996194e+01
      endloop
   endfacet
   facet normal 3.962078e-01 -3.962287e-01 8.282646e-01
      outer loop
         vertex 1.742874e+01 -6.528415e+01 3.985355e+01
         vertex 1.729750e+01 -6.518880e+01 3.996194e+01
         vertex 1.718880e+01 -6.529750e+01 3.996194e+01
      endloop
   endfacet
   facet normal 3.962096e-01 -3.962148e-01 8.282703e-01
      outer loop
         vertex 1.728415e+01 -6.542873e+01 3.985355e+01
         vertex 1.742874e+01 -6.528415e+01 3.985355e+01
         vertex 1.718880e+01 -6.529750e+01 3.996194e+01
      endloop
   endfacet
   facet normal 4.992618e-01 -2.543863e-01 8.282664e-01
      outer loop
         vertex 1.752157e+01 -6.510196e+01 3.985355e+01
         vertex 1.736729e+01 -6.505183e+01 3.996194e+01
         vertex 1.729750e+01 -6.518880e+01 3.996194e+01
      endloop
   endfacet
   facet normal 4.992620e-01 -2.543874e-01 8.282660e-01
      outer loop
         vertex 1.742874e+01 -6.528415e+01 3.985355e+01
         vertex 1.752157e+01 -6.510196e+01 3.985355e+01
         vertex 1.729750e+01 -6.518880e+01 3.996194e+01
      endloop
   endfacet
   facet normal 3.789284e-01 -7.436563e-01 5.508072e-01
      outer loop
         vertex 1.734786e+01 -6.551642e+01 3.969134e+01
         vertex 1.728415e+01 -6.542873e+01 3.985355e+01
         vertex 1.710196e+01 -6.552157e+01 3.985355e+01
      endloop
   endfacet
   facet normal 3.789293e-01 -7.436547e-01 5.508087e-01
      outer loop
         vertex 1.713545e+01 -6.562465e+01 3.969134e+01
         vertex 1.734786e+01 -6.551642e+01 3.969134e+01
         vertex 1.710196e+01 -6.552157e+01 3.985355e+01
      endloop
   endfacet
   facet normal 5.901708e-01 -5.901786e-01 5.508064e-01
      outer loop
         vertex 1.751642e+01 -6.534785e+01 3.969134e+01
         vertex 1.742874e+01 -6.528415e+01 3.985355e+01
         vertex 1.728415e+01 -6.542873e+01 3.985355e+01
      endloop
   endfacet
   facet normal 5.901710e-01 -5.901777e-01 5.508072e-01
      outer loop
         vertex 1.734786e+01 -6.551642e+01 3.969134e+01
         vertex 1.751642e+01 -6.534785e+01 3.969134e+01
         vertex 1.728415e+01 -6.542873e+01 3.985355e+01
      endloop
   endfacet
   facet normal 7.436611e-01 -3.789152e-01 5.508098e-01
      outer loop
         vertex 1.762465e+01 -6.513545e+01 3.969134e+01
         vertex 1.752157e+01 -6.510196e+01 3.985355e+01
         vertex 1.742874e+01 -6.528415e+01 3.985355e+01
      endloop
   endfacet
   facet normal 7.436611e-01 -3.789159e-01 5.508093e-01
      outer loop
         vertex 1.751642e+01 -6.534785e+01 3.969134e+01
         vertex 1.762465e+01 -6.513545e+01 3.969134e+01
         vertex 1.742874e+01 -6.528415e+01 3.985355e+01
      endloop
   endfacet
   facet normal 1.949926e-01 -3.088372e-02 9.803183e-01
      outer loop
         vertex 1.736729e+01 -6.505183e+01 3.996194e+01
         vertex 1.739134e+01 -6.490000e+01 3.996194e+01
         vertex 1.720000e+01 -6.490000e+01 4.000000e+01
      endloop
   endfacet
   facet normal 5.534368e-01 -8.765553e-02 8.282658e-01
      outer loop
         vertex 1.736729e+01 -6.505183e+01 3.996194e+01
         vertex 1.755355e+01 -6.490000e+01 3.985355e+01
         vertex 1.739134e+01 -6.490000e+01 3.996194e+01
      endloop
   endfacet
   facet normal 8.243520e-01 -1.305616e-01 5.508152e-01
      outer loop
         vertex 1.752157e+01 -6.510196e+01 3.985355e+01
         vertex 1.766194e+01 -6.490000e+01 3.969134e+01
         vertex 1.755355e+01 -6.490000e+01 3.985355e+01
      endloop
   endfacet
   facet normal 9.691602e-01 -1.535035e-01 1.927829e-01
      outer loop
         vertex 1.766084e+01 -6.514722e+01 3.950000e+01
         vertex 1.770000e+01 -6.490000e+01 3.950000e+01
         vertex 1.766194e+01 -6.490000e+01 3.969134e+01
      endloop
   endfacet
   facet normal 8.742927e-01 -4.454687e-01 1.927951e-01
      outer loop
         vertex 1.751642e+01 -6.534785e+01 3.969134e+01
         vertex 1.754721e+01 -6.537023e+01 3.950000e+01
         vertex 1.766084e+01 -6.514722e+01 3.950000e+01
      endloop
   endfacet
   facet normal 6.938276e-01 -6.938575e-01 1.927823e-01
      outer loop
         vertex 1.734786e+01 -6.551642e+01 3.969134e+01
         vertex 1.737023e+01 -6.554721e+01 3.950000e+01
         vertex 1.754721e+01 -6.537023e+01 3.950000e+01
      endloop
   endfacet
   facet normal 4.454777e-01 -8.742955e-01 1.927615e-01
      outer loop
         vertex 1.713545e+01 -6.562465e+01 3.969134e+01
         vertex 1.714721e+01 -6.566084e+01 3.950000e+01
         vertex 1.737023e+01 -6.554721e+01 3.950000e+01
      endloop
   endfacet
   facet normal 1.534982e-01 -9.691665e-01 1.927551e-01
      outer loop
         vertex 1.690000e+01 -6.566194e+01 3.969134e+01
         vertex 1.690000e+01 -6.570000e+01 3.950000e+01
         vertex 1.714721e+01 -6.566084e+01 3.950000e+01
      endloop
   endfacet
   facet normal 1.305437e-01 -8.243450e-01 5.508299e-01
      outer loop
         vertex 1.710196e+01 -6.552157e+01 3.985355e+01
         vertex 1.690000e+01 -6.555355e+01 3.985355e+01
         vertex 1.690000e+01 -6.566194e+01 3.969134e+01
      endloop
   endfacet
   facet normal 8.765624e-02 -5.534413e-01 8.282627e-01
      outer loop
         vertex 1.705183e+01 -6.536729e+01 3.996194e+01
         vertex 1.690000e+01 -6.539134e+01 3.996194e+01
         vertex 1.690000e+01 -6.555355e+01 3.985355e+01
      endloop
   endfacet
   facet normal 3.088312e-02 -1.949889e-01 9.803191e-01
      outer loop
         vertex 1.705183e+01 -6.536729e+01 3.996194e+01
         vertex 1.690000e+01 -6.520000e+01 4.000000e+01
         vertex 1.690000e+01 -6.539134e+01 3.996194e+01
      endloop
   endfacet
   facet normal 4.817556e-02 -1.797964e-01 9.825235e-01
      outer loop
         vertex 1.705183e+01 -6.536729e+01 3.996194e+01
         vertex 1.705000e+01 -6.515981e+01 4.000000e+01
         vertex 1.690000e+01 -6.520000e+01 4.000000e+01
      endloop
   endfacet
   facet normal 1.351074e-01 -1.351144e-01 9.815753e-01
      outer loop
         vertex 1.718880e+01 -6.529750e+01 3.996194e+01
         vertex 1.715981e+01 -6.505000e+01 4.000000e+01
         vertex 1.705000e+01 -6.515981e+01 4.000000e+01
      endloop
   endfacet
   facet normal 1.797984e-01 -4.817777e-02 9.825230e-01
      outer loop
         vertex 1.736729e+01 -6.505183e+01 3.996194e+01
         vertex 1.720000e+01 -6.490000e+01 4.000000e+01
         vertex 1.715981e+01 -6.505000e+01 4.000000e+01
      endloop
   endfacet
   facet normal 9.115261e-02 -1.788875e-01 9.796379e-01
      outer loop
         vertex 1.705000e+01 -6.515981e+01 4.000000e+01
         vertex 1.705183e+01 -6.536729e+01 3.996194e+01
         vertex 1.718880e+01 -6.529750e+01 3.996194e+01
      endloop
   endfacet
   facet normal 1.788900e-01 -9.114890e-02 9.796378e-01
      outer loop
         vertex 1.715981e+01 -6.505000e+01 4.000000e+01
         vertex 1.729750e+01 -6.518880e+01 3.996194e+01
         vertex 1.736729e+01 -6.505183e+01 3.996194e+01
      endloop
   endfacet
   facet normal 8.764200e-02 -5.534335e-01 8.282694e-01
      outer loop
         vertex 1.690000e+01 -6.555355e+01 3.985355e+01
         vertex 1.710196e+01 -6.552157e+01 3.985355e+01
         vertex 1.705183e+01 -6.536729e+01 3.996194e+01
      endloop
   endfacet
   facet normal 5.534358e-01 -8.765364e-02 8.282667e-01
      outer loop
         vertex 1.755355e+01 -6.490000e+01 3.985355e+01
         vertex 1.736729e+01 -6.505183e+01 3.996194e+01
         vertex 1.752157e+01 -6.510196e+01 3.985355e+01
      endloop
   endfacet
   facet normal 1.305665e-01 -8.243548e-01 5.508099e-01
      outer loop
         vertex 1.690000e+01 -6.566194e+01 3.969134e+01
         vertex 1.713545e+01 -6.562465e+01 3.969134e+01
         vertex 1.710196e+01 -6.552157e+01 3.985355e+01
      endloop
   endfacet
   facet normal 8.243546e-01 -1.305676e-01 5.508100e-01
      outer loop
         vertex 1.766194e+01 -6.490000e+01 3.969134e+01
         vertex 1.752157e+01 -6.510196e+01 3.985355e+01
         vertex 1.762465e+01 -6.513545e+01 3.969134e+01
      endloop
   endfacet
   facet normal 4.454913e-01 -8.742838e-01 1.927830e-01
      outer loop
         vertex 1.737023e+01 -6.554721e+01 3.950000e+01
         vertex 1.734786e+01 -6.551642e+01 3.969134e+01
         vertex 1.713545e+01 -6.562465e+01 3.969134e+01
      endloop
   endfacet
   facet normal 6.938360e-01 -6.938438e-01 1.928015e-01
      outer loop
         vertex 1.754721e+01 -6.537023e+01 3.950000e+01
         vertex 1.751642e+01 -6.534785e+01 3.969134e+01
         vertex 1.734786e+01 -6.551642e+01 3.969134e+01
      endloop
   endfacet
   facet normal 8.742911e-01 -4.454755e-01 1.927868e-01
      outer loop
         vertex 1.766084e+01 -6.514722e+01 3.950000e+01
         vertex 1.762465e+01 -6.513545e+01 3.969134e+01
         vertex 1.751642e+01 -6.534785e+01 3.969134e+01
      endloop
   endfacet
   facet normal 9.691604e-01 -1.535030e-01 1.927823e-01
      outer loop
         vertex 1.762465e+01 -6.513545e+01 3.969134e+01
         vertex 1.766084e+01 -6.514722e+01 3.950000e+01
         vertex 1.766194e+01 -6.490000e+01 3.969134e+01
      endloop
   endfacet
   facet normal 1.535024e-01 -9.691648e-01 1.927607e-01
      outer loop
         vertex 1.690000e+01 -6.566194e+01 3.969134e+01
         vertex 1.714721e+01 -6.566084e+01 3.950000e+01
         vertex 1.713545e+01 -6.562465e+01 3.969134e+01
      endloop
   endfacet
   facet normal 1.351073e-01 -1.351145e-01 9.815753e-01
      outer loop
         vertex 1.729750e+01 -6.518880e+01 3.996194e+01
         vertex 1.715981e+01 -6.505000e+01 4.000000e+01
         vertex 1.718880e+01 -6.529750e+01 3.996194e+01
      endloop
   endfacet
   facet normal 0.000000e+00 -1.950820e-01 9.807869e-01
      outer loop
         vertex -1.690000e+01 -6.520000e+01 4.000000e+01
         vertex -1.690000e+01 -6.539134e+01 3.996194e+01
         vertex 1.690000e+01 -6.539134e+01 3.996194e+01
      endloop
   endfacet
   facet normal 0.000000e+00 -1.950820e-01 9.807869e-01
      outer loop
         vertex -1.690000e+01 -6.520000e+01 4.000000e+01
         vertex 1.690000e+01 -6.539134e+01 3.996194e+01
         vertex 1.690000e+01 -6.520000e+01 4.000000e+01
      endloop
   endfacet
   facet normal 0.000000e+00 -5.555798e-01 8.314632e-01
      outer loop
         vertex -1.690000e+01 -6.539134e+01 3.996194e+01
         vertex -1.690000e+01 -6.555355e+01 3.985355e+01
         vertex 1.690000e+01 -6.555355e+01 3.985355e+01
      endloop
   endfacet
   facet normal 0.000000e+00 -5.555798e-01 8.314632e-01
      outer loop
         vertex -1.690000e+01 -6.539134e+01 3.996194e+01
         vertex 1.690000e+01 -6.555355e+01 3.985355e+01
         vertex 1.690000e+01 -6.539134e+01 3.996194e+01
      endloop
   endfacet
   facet normal 0.000000e+00 -8.314602e-01 5.555843e-01
      outer loop
         vertex -1.690000e+01 -6.555355e+01 3.985355e+01
         vertex -1.690000e+01 -6.566194e+01 3.969134e+01
         vertex 1.690000e+01 -6.566194e+01 3.969134e+01
      endloop
   endfacet
   facet normal 0.000000e+00 -8.314602e-01 5.555843e-01
      outer loop
         vertex -1.690000e+01 -6.555355e+01 3.985355e+01
         vertex 1.690000e+01 -6.566194e+01 3.969134e+01
         vertex 1.690000e+01 -6.555355e+01 3.985355e+01
      endloop
   endfacet
   facet normal 0.000000e+00 -9.807899e-01 1.950669e-01
      outer loop
         vertex -1.690000e+01 -6.566194e+01 3.969134e+01
         vertex -1.690000e+01 -6.570000e+01 3.950000e+01
         vertex 1.690000e+01 -6.570000e+01 3.950000e+01
      endloop
   endfacet
   facet normal 0.000000e+00 -9.807899e-01 1.950669e-01
      outer loop
         vertex -1.690000e+01 -6.566194e+01 3.969134e+01
         vertex 1.690000e+01 -6.570000e+01 3.950000e+01
         vertex 1.690000e+01 -6.566194e+01 3.969134e+01
      endloop
   endfacet
   facet normal -4.992625e-01 -2.543867e-01 8.282659e-01
      outer loop
         vertex -1.742874e+01 -6.528415e+01 3.985355e+01
         vertex -1.729750e+01 -6.518880e+01 3.996194e+01
         vertex -1.736729e+01 -6.505183e+01 3.996194e+01
      endloop
   endfacet
   facet normal -4.992615e-01 -2.543871e-01 8.282663e-01
      outer loop
         vertex -1.752157e+01 -6.510196e+01 3.985355e+01
         vertex -1.742874e+01 -6.528415e+01 3.985355e+01
         vertex -1.736729e+01 -6.505183e+01 3.996194e+01
      endloop
   endfacet
   facet normal -3.962010e-01 -3.962218e-01 8.282711e-01
      outer loop
         vertex -1.728415e+01 -6.542873e+01 3.985355e+01
         vertex -1.718880e+01 -6.529750e+01 3.996194e+01
         vertex -1.729750e+01 -6.518880e+01 3.996194e+01
      endloop
   endfacet
   facet normal -3.962148e-01 -3.962200e-01 8.282654e-01
      outer loop
         vertex -1.742874e+01 -6.528415e+01 3.985355e+01
         vertex -1.728415e+01 -6.542873e+01 3.985355e+01
         vertex -1.729750e+01 -6.518880e+01 3.996194e+01
      endloop
   endfacet
   facet normal -2.543952e-01 -4.992519e-01 8.282697e-01
      outer loop
         vertex -1.710196e+01 -6.552157e+01 3.985355e+01
         vertex -1.705183e+01 -6.536729e+01 3.996194e+01
         vertex -1.718880e+01 -6.529750e+01 3.996194e+01
      endloop
   endfacet
   facet normal -2.543924e-01 -4.992514e-01 8.282708e-01
      outer loop
         vertex -1.728415e+01 -6.542873e+01 3.985355e+01
         vertex -1.710196e+01 -6.552157e+01 3.985355e+01
         vertex -1.718880e+01 -6.529750e+01 3.996194e+01
      endloop
   endfacet
   facet normal -7.436614e-01 -3.789154e-01 5.508092e-01
      outer loop
         vertex -1.751642e+01 -6.534785e+01 3.969134e+01
         vertex -1.742874e+01 -6.528415e+01 3.985355e+01
         vertex -1.752157e+01 -6.510196e+01 3.985355e+01
      endloop
   endfacet
   facet normal -7.436608e-01 -3.789158e-01 5.508098e-01
      outer loop
         vertex -1.762465e+01 -6.513545e+01 3.969134e+01
         vertex -1.751642e+01 -6.534785e+01 3.969134e+01
         vertex -1.752157e+01 -6.510196e+01 3.985355e+01
      endloop
   endfacet
   facet normal -5.901704e-01 -5.901782e-01 5.508072e-01
      outer loop
         vertex -1.734786e+01 -6.551642e+01 3.969134e+01
         vertex -1.728415e+01 -6.542873e+01 3.985355e+01
         vertex -1.742874e+01 -6.528415e+01 3.985355e+01
      endloop
   endfacet
   facet normal -5.901713e-01 -5.901780e-01 5.508065e-01
      outer loop
         vertex -1.751642e+01 -6.534785e+01 3.969134e+01
         vertex -1.734786e+01 -6.551642e+01 3.969134e+01
         vertex -1.742874e+01 -6.528415e+01 3.985355e+01
      endloop
   endfacet
   facet normal -3.789279e-01 -7.436554e-01 5.508088e-01
      outer loop
         vertex -1.713545e+01 -6.562465e+01 3.969134e+01
         vertex -1.710196e+01 -6.552157e+01 3.985355e+01
         vertex -1.728415e+01 -6.542873e+01 3.985355e+01
      endloop
   endfacet
   facet normal -3.789297e-01 -7.436555e-01 5.508074e-01
      outer loop
         vertex -1.734786e+01 -6.551642e+01 3.969134e+01
         vertex -1.713545e+01 -6.562465e+01 3.969134e+01
         vertex -1.728415e+01 -6.542873e+01 3.985355e+01
      endloop
   endfacet
   facet normal -3.088312e-02 -1.949889e-01 9.803191e-01
      outer loop
         vertex -1.705183e+01 -6.536729e+01 3.996194e+01
         vertex -1.690000e+01 -6.539134e+01 3.996194e+01
         vertex -1.690000e+01 -6.520000e+01 4.000000e+01
      endloop
   endfacet
   facet normal -8.765624e-02 -5.534413e-01 8.282627e-01
      outer loop
         vertex -1.705183e+01 -6.536729e+01 3.996194e+01
         vertex -1.690000e+01 -6.555355e+01 3.985355e+01
         vertex -1.690000e+01 -6.539134e+01 3.996194e+01
      endloop
   endfacet
   facet normal -1.305437e-01 -8.243450e-01 5.508299e-01
      outer loop
         vertex -1.710196e+01 -6.552157e+01 3.985355e+01
         vertex -1.690000e+01 -6.566194e+01 3.969134e+01
         vertex -1.690000e+01 -6.555355e+01 3.985355e+01
      endloop
   endfacet
   facet normal -1.534982e-01 -9.691665e-01 1.927551e-01
      outer loop
         vertex -1.714721e+01 -6.566084e+01 3.950000e+01
         vertex -1.690000e+01 -6.570000e+01 3.950000e+01
         vertex -1.690000e+01 -6.566194e+01 3.969134e+01
      endloop
   endfacet
   facet normal -4.454758e-01 -8.742918e-01 1.927825e-01
      outer loop
         vertex -1.734786e+01 -6.551642e+01 3.969134e+01
         vertex -1.737023e+01 -6.554721e+01 3.950000e+01
         vertex -1.714721e+01 -6.566084e+01 3.950000e+01
      endloop
   endfacet
   facet normal -6.938250e-01 -6.938549e-01 1.928011e-01
      outer loop
         vertex -1.751642e+01 -6.534785e+01 3.969134e+01
         vertex -1.754721e+01 -6.537023e+01 3.950000e+01
         vertex -1.737023e+01 -6.554721e+01 3.950000e+01
      endloop
   endfacet
   facet normal -8.742941e-01 -4.454694e-01 1.927870e-01
      outer loop
         vertex -1.762465e+01 -6.513545e+01 3.969134e+01
         vertex -1.766084e+01 -6.514722e+01 3.950000e+01
         vertex -1.754721e+01 -6.537023e+01 3.950000e+01
      endloop
   endfacet
   facet normal -9.691602e-01 -1.535035e-01 1.927829e-01
      outer loop
         vertex -1.766194e+01 -6.490000e+01 3.969134e+01
         vertex -1.770000e+01 -6.490000e+01 3.950000e+01
         vertex -1.766084e+01 -6.514722e+01 3.950000e+01
      endloop
   endfacet
   facet normal -8.243520e-01 -1.305616e-01 5.508152e-01
      outer loop
         vertex -1.752157e+01 -6.510196e+01 3.985355e+01
         vertex -1.755355e+01 -6.490000e+01 3.985355e+01
         vertex -1.766194e+01 -6.490000e+01 3.969134e+01
      endloop
   endfacet
   facet normal -5.534368e-01 -8.765553e-02 8.282658e-01
      outer loop
         vertex -1.736729e+01 -6.505183e+01 3.996194e+01
         vertex -1.739134e+01 -6.490000e+01 3.996194e+01
         vertex -1.755355e+01 -6.490000e+01 3.985355e+01
      endloop
   endfacet
   facet normal -1.949926e-01 -3.088372e-02 9.803183e-01
      outer loop
         vertex -1.736729e+01 -6.505183e+01 3.996194e+01
         vertex -1.720000e+01 -6.490000e+01 4.000000e+01
         vertex -1.739134e+01 -6.490000e+01 3.996194e+01
      endloop
   endfacet
   facet normal -1.797984e-01 -4.817777e-02 9.825230e-01
      outer loop
         vertex -1.736729e+01 -6.505183e+01 3.996194e+01
         vertex -1.715981e+01 -6.505000e+01 4.000000e+01
         vertex -1.720000e+01 -6.490000e+01 4.000000e+01
      endloop
   endfacet
   facet normal -1.351074e-01 -1.351144e-01 9.815753e-01
      outer loop
         vertex -1.729750e+01 -6.518880e+01 3.996194e+01
         vertex -1.705000e+01 -6.515981e+01 4.000000e+01
         vertex -1.715981e+01 -6.505000e+01 4.000000e+01
      endloop
   endfacet
   facet normal -4.817556e-02 -1.797964e-01 9.825235e-01
      outer loop
         vertex -1.705183e+01 -6.536729e+01 3.996194e+01
         vertex -1.690000e+01 -6.520000e+01 4.000000e+01
         vertex -1.705000e+01 -6.515981e+01 4.000000e+01
      endloop
   endfacet
   facet normal -1.788900e-01 -9.114890e-02 9.796378e-01
      outer loop
         vertex -1.715981e+01 -6.505000e+01 4.000000e+01
         vertex -1.736729e+01 -6.505183e+01 3.996194e+01
         vertex -1.729750e+01 -6.518880e+01 3.996194e+01
      endloop
   endfacet
   facet normal -9.115261e-02 -1.788875e-01 9.796379e-01
      outer loop
         vertex -1.705000e+01 -6.515981e+01 4.000000e+01
         vertex -1.718880e+01 -6.529750e+01 3.996194e+01
         vertex -1.705183e+01 -6.536729e+01 3.996194e+01
      endloop
   endfacet
   facet normal -5.534358e-01 -8.765364e-02 8.282667e-01
      outer loop
         vertex -1.755355e+01 -6.490000e+01 3.985355e+01
         vertex -1.752157e+01 -6.510196e+01 3.985355e+01
         vertex -1.736729e+01 -6.505183e+01 3.996194e+01
      endloop
   endfacet
   facet normal -8.764200e-02 -5.534335e-01 8.282694e-01
      outer loop
         vertex -1.690000e+01 -6.555355e+01 3.985355e+01
         vertex -1.705183e+01 -6.536729e+01 3.996194e+01
         vertex -1.710196e+01 -6.552157e+01 3.985355e+01
      endloop
   endfacet
   facet normal -8.243546e-01 -1.305676e-01 5.508100e-01
      outer loop
         vertex -1.766194e+01 -6.490000e+01 3.969134e+01
         vertex -1.762465e+01 -6.513545e+01 3.969134e+01
         vertex -1.752157e+01 -6.510196e+01 3.985355e+01
      endloop
   endfacet
   facet normal -1.305665e-01 -8.243548e-01 5.508099e-01
      outer loop
         vertex -1.690000e+01 -6.566194e+01 3.969134e+01
         vertex -1.710196e+01 -6.552157e+01 3.985355e+01
         vertex -1.713545e+01 -6.562465e+01 3.969134e+01
      endloop
   endfacet
   facet normal -8.742896e-01 -4.454747e-01 1.927953e-01
      outer loop
         vertex -1.754721e+01 -6.537023e+01 3.950000e+01
         vertex -1.751642e+01 -6.534785e+01 3.969134e+01
         vertex -1.762465e+01 -6.513545e+01 3.969134e+01
      endloop
   endfacet
   facet normal -6.938387e-01 -6.938465e-01 1.927819e-01
      outer loop
         vertex -1.737023e+01 -6.554721e+01 3.950000e+01
         vertex -1.734786e+01 -6.551642e+01 3.969134e+01
         vertex -1.751642e+01 -6.534785e+01 3.969134e+01
      endloop
   endfacet
   facet normal -4.454933e-01 -8.742877e-01 1.927610e-01
      outer loop
         vertex -1.714721e+01 -6.566084e+01 3.950000e+01
         vertex -1.713545e+01 -6.562465e+01 3.969134e+01
         vertex -1.734786e+01 -6.551642e+01 3.969134e+01
      endloop
   endfacet
   facet normal -1.535024e-01 -9.691648e-01 1.927607e-01
      outer loop
         vertex -1.713545e+01 -6.562465e+01 3.969134e+01
         vertex -1.714721e+01 -6.566084e+01 3.950000e+01
         vertex -1.690000e+01 -6.566194e+01 3.969134e+01
      endloop
   endfacet
   facet normal -9.691604e-01 -1.535030e-01 1.927823e-01
      outer loop
         vertex -1.766194e+01 -6.490000e+01 3.969134e+01
         vertex -1.766084e+01 -6.514722e+01 3.950000e+01
         vertex -1.762465e+01 -6.513545e+01 3.969134e+01
      endloop
   endfacet
   facet normal -1.351074e-01 -1.351145e-01 9.815753e-01
      outer loop
         vertex -1.718880e+01 -6.529750e+01 3.996194e+01
         vertex -1.705000e+01 -6.515981e+01 4.000000e+01
         vertex -1.729750e+01 -6.518880e+01 3.996194e+01
      endloop
   endfacet
   facet normal -1.950857e-01 0.000000e+00 9.807862e-01
      outer loop
         vertex -1.720000e+01 6.490000e+01 4.000000e+01
         vertex -1.739134e+01 6.490000e+01 3.996194e+01
         vertex -1.739134e+01 -6.490000e+01 3.996194e+01
      endloop
   endfacet
   facet normal -1.950857e-01 0.000000e+00 9.807862e-01
      outer loop
         vertex -1.720000e+01 6.490000e+01 4.000000e+01
         vertex -1.739134e+01 -6.490000e+01 3.996194e+01
         vertex -1.720000e+01 -6.490000e+01 4.000000e+01
      endloop
   endfacet
   facet normal -5.555753e-01 0.000000e+00 8.314662e-01
      outer loop
         vertex -1.739134e+01 6.490000e+01 3.996194e+01
         vertex -1.755355e+01 6.490000e+01 3.985355e+01
         vertex -1.755355e+01 -6.490000e+01 3.985355e+01
      endloop
   endfacet
   facet normal -5.555753e-01 0.000000e+00 8.314662e-01
      outer loop
         vertex -1.739134e+01 6.490000e+01 3.996194e+01
         vertex -1.755355e+01 -6.490000e+01 3.985355e+01
         vertex -1.739134e+01 -6.490000e+01 3.996194e+01
      endloop
   endfacet
   facet normal -8.314693e-01 0.000000e+00 5.555708e-01
      outer loop
         vertex -1.755355e+01 6.490000e+01 3.985355e+01
         vertex -1.766194e+01 6.490000e+01 3.969134e+01
         vertex -1.766194e+01 -6.490000e+01 3.969134e+01
      endloop
   endfacet
   facet normal -8.314693e-01 0.000000e+00 5.555708e-01
      outer loop
         vertex -1.755355e+01 6.490000e+01 3.985355e+01
         vertex -1.766194e+01 -6.490000e+01 3.969134e+01
         vertex -1.755355e+01 -6.490000e+01 3.985355e+01
      endloop
   endfacet
   facet normal -9.807843e-01 0.000000e+00 1.950951e-01
      outer loop
         vertex -1.766194e+01 6.490000e+01 3.969134e+01
         vertex -1.770000e+01 6.490000e+01 3.950000e+01
         vertex -1.770000e+01 -6.490000e+01 3.950000e+01
      endloop
   endfacet
   facet normal -9.807843e-01 0.000000e+00 1.950951e-01
      outer loop
         vertex -1.766194e+01 6.490000e+01 3.969134e+01
         vertex -1.770000e+01 -6.490000e+01 3.950000e+01
         vertex -1.766194e+01 -6.490000e+01 3.969134e+01
      endloop
   endfacet
   facet normal -2.543943e-01 4.992502e-01 8.282710e-01
      outer loop
         vertex -1.728415e+01 6.542873e+01 3.985355e+01
         vertex -1.718880e+01 6.529750e+01 3.996194e+01
         vertex -1.705183e+01 6.536729e+01 3.996194e+01
      endloop
   endfacet
   facet normal -2.543931e-01 4.992527e-01 8.282698e-01
      outer loop
         vertex -1.710196e+01 6.552157e+01 3.985355e+01
         vertex -1.728415e+01 6.542873e+01 3.985355e+01
         vertex -1.705183e+01 6.536729e+01 3.996194e+01
      endloop
   endfacet
   facet normal -3.962078e-01 3.962287e-01 8.282646e-01
      outer loop
         vertex -1.742874e+01 6.528415e+01 3.985355e+01
         vertex -1.729750e+01 6.518880e+01 3.996194e+01
         vertex -1.718880e+01 6.529750e+01 3.996194e+01
      endloop
   endfacet
   facet normal -3.962096e-01 3.962148e-01 8.282703e-01
      outer loop
         vertex -1.728415e+01 6.542873e+01 3.985355e+01
         vertex -1.742874e+01 6.528415e+01 3.985355e+01
         vertex -1.718880e+01 6.529750e+01 3.996194e+01
      endloop
   endfacet
   facet normal -4.992618e-01 2.543863e-01 8.282664e-01
      outer loop
         vertex -1.752157e+01 6.510196e+01 3.985355e+01
         vertex -1.736729e+01 6.505183e+01 3.996194e+01
         vertex -1.729750e+01 6.518880e+01 3.996194e+01
      endloop
   endfacet
   facet normal -4.992620e-01 2.543874e-01 8.282660e-01
      outer loop
         vertex -1.742874e+01 6.528415e+01 3.985355e+01
         vertex -1.752157e+01 6.510196e+01 3.985355e+01
         vertex -1.729750e+01 6.518880e+01 3.996194e+01
      endloop
   endfacet
   facet normal -3.789284e-01 7.436563e-01 5.508072e-01
      outer loop
         vertex -1.734786e+01 6.551642e+01 3.969134e+01
         vertex -1.728415e+01 6.542873e+01 3.985355e+01
         vertex -1.710196e+01 6.552157e+01 3.985355e+01
      endloop
   endfacet
   facet normal -3.789293e-01 7.436547e-01 5.508087e-01
      outer loop
         vertex -1.713545e+01 6.562465e+01 3.969134e+01
         vertex -1.734786e+01 6.551642e+01 3.969134e+01
         vertex -1.710196e+01 6.552157e+01 3.985355e+01
      endloop
   endfacet
   facet normal -5.901708e-01 5.901786e-01 5.508064e-01
      outer loop
         vertex -1.751642e+01 6.534785e+01 3.969134e+01
         vertex -1.742874e+01 6.528415e+01 3.985355e+01
         vertex -1.728415e+01 6.542873e+01 3.985355e+01
      endloop
   endfacet
   facet normal -5.901710e-01 5.901777e-01 5.508072e-01
      outer loop
         vertex -1.734786e+01 6.551642e+01 3.969134e+01
         vertex -1.751642e+01 6.534785e+01 3.969134e+01
         vertex -1.728415e+01 6.542873e+01 3.985355e+01
      endloop
   endfacet
   facet normal -7.436611e-01 3.789152e-01 5.508098e-01
      outer loop
         vertex -1.762465e+01 6.513545e+01 3.969134e+01
         vertex -1.752157e+01 6.510196e+01 3.985355e+01
         vertex -1.742874e+01 6.528415e+01 3.985355e+01
      endloop
   endfacet
   facet normal -7.436611e-01 3.789159e-01 5.508093e-01
      outer loop
         vertex -1.751642e+01 6.534785e+01 3.969134e+01
         vertex -1.762465e+01 6.513545e+01 3.969134e+01
         vertex -1.742874e+01 6.528415e+01 3.985355e+01
      endloop
   endfacet
   facet normal -1.949926e-01 3.088372e-02 9.803183e-01
      outer loop
         vertex -1.736729e+01 6.505183e+01 3.996194e+01
         vertex -1.739134e+01 6.490000e+01 3.996194e+01
         vertex -1.720000e+01 6.490000e+01 4.000000e+01
      endloop
   endfacet
   facet normal -5.534368e-01 8.765553e-02 8.282658e-01
      outer loop
         vertex -1.736729e+01 6.505183e+01 3.996194e+01
         vertex -1.755355e+01 6.490000e+01 3.985355e+01
         vertex -1.739134e+01 6.490000e+01 3.996194e+01
      endloop
   endfacet
   facet normal -8.243520e-01 1.305616e-01 5.508152e-01
      outer loop
         vertex -1.752157e+01 6.510196e+01 3.985355e+01
         vertex -1.766194e+01 6.490000e+01 3.969134e+01
         vertex -1.755355e+01 6.490000e+01 3.985355e+01
      endloop
   endfacet
   facet normal -9.691602e-01 1.535035e-01 1.927829e-01
      outer loop
         vertex -1.766084e+01 6.514722e+01 3.950000e+01
         vertex -1.770000e+01 6.490000e+01 3.950000e+01
         vertex -1.766194e+01 6.490000e+01 3.969134e+01
      endloop
   endfacet
   facet normal -8.742927e-01 4.454687e-01 1.927951e-01
      outer loop
         vertex -1.751642e+01 6.534785e+01 3.969134e+01
         vertex -1.754721e+01 6.537023e+01 3.950000e+01
         vertex -1.766084e+01 6.514722e+01 3.950000e+01
      endloop
   endfacet
   facet normal -6.938276e-01 6.938575e-01 1.927823e-01
      outer loop
         vertex -1.734786e+01 6.551642e+01 3.969134e+01
         vertex -1.737023e+01 6.554721e+01 3.950000e+01
         vertex -1.754721e+01 6.537023e+01 3.950000e+01
      endloop
   endfacet
   facet normal -4.454777e-01 8.742955e-01 1.927615e-01
      outer loop
         vertex -1.713545e+01 6.562465e+01 3.969134e+01
         vertex -1.714721e+01 6.566084e+01 3.950000e+01
         vertex -1.737023e+01 6.554721e+01 3.950000e+01
      endloop
   endfacet
   facet normal -1.534982e-01 9.691665e-01 1.927551e-01
      outer loop
         vertex -1.690000e+01 6.566194e+01 3.969134e+01
         vertex -1.690000e+01 6.570000e+01 3.950000e+01
         vertex -1.714721e+01 6.566084e+01 3.950000e+01
      endloop
   endfacet
   facet normal -1.305437e-01 8.243450e-01 5.508299e-01
      outer loop
         vertex -1.710196e+01 6.552157e+01 3.985355e+01
         vertex -1.690000e+01 6.555355e+01 3.985355e+01
         vertex -1.690000e+01 6.566194e+01 3.969134e+01
      endloop
   endfacet
   facet normal -8.765624e-02 5.534413e-01 8.282627e-01
      outer loop
         vertex -1.705183e+01 6.536729e+01 3.996194e+01
         vertex -1.690000e+01 6.539134e+01 3.996194e+01
         vertex -1.690000e+01 6.555355e+01 3.985355e+01
      endloop
   endfacet
   facet normal -3.088312e-02 1.949889e-01 9.803191e-01
      outer loop
         vertex -1.705183e+01 6.536729e+01 3.996194e+01
         vertex -1.690000e+01 6.520000e+01 4.000000e+01
         vertex -1.690000e+01 6.539134e+01 3.996194e+01
      endloop
   endfacet
   facet normal -4.817556e-02 1.797964e-01 9.825235e-01
      outer loop
         vertex -1.705183e+01 6.536729e+01 3.996194e+01
         vertex -1.705000e+01 6.515981e+01 4.000000e+01
         vertex -1.690000e+01 6.520000e+01 4.000000e+01
      endloop
   endfacet
   facet normal -1.351074e-01 1.351144e-01 9.815753e-01
      outer loop
         vertex -1.718880e+01 6.529750e+01 3.996194e+01
         vertex -1.715981e+01 6.505000e+01 4.000000e+01
         vertex -1.705000e+01 6.515981e+01 4.000000e+01
      endloop
   endfacet
   facet normal -1.797984e-01 4.817777e-02 9.825230e-01
      outer loop
         vertex -1.736729e+01 6.505183e+01 3.996194e+01
         vertex -1.720000e+01 6.490000e+01 4.000000e+01
         vertex -1.715981e+01 6.505000e+01 4.000000e+01
      endloop
   endfacet
   facet normal -9.115261e-02 1.788875e-01 9.796379e-01
      outer loop
         vertex -1.705000e+01 6.515981e+01 4.000000e+01
         vertex -1.705183e+01 6.536729e+01 3.996194e+01
         vertex -1.718880e+01 6.529750e+01 3.996194e+01
      endloop
   endfacet
   facet normal -1.788900e-01 9.114890e-02 9.796378e-01
      outer loop
         vertex -1.715981e+01 6.505000e+01 4.000000e+01
         vertex -1.729750e+01 6.518880e+01 3.996194e+01
         vertex -1.736729e+01 6.505183e+01 3.996194e+01
      endloop
   endfacet
   facet normal -8.764200e-02 5.534335e-01 8.282694e-01
      outer loop
         vertex -1.690000e+01 6.555355e+01 3.985355e+01
         vertex -1.710196e+01 6.552157e+01 3.985355e+01
         vertex -1.705183e+01 6.536729e+01 3.996194e+01
      endloop
   endfacet
   facet normal -5.534358e-01 8.765364e-02 8.282667e-01
      outer loop
         vertex -1.755355e+01 6.490000e+01 3.985355e+01
         vertex -1.736729e+01 6.505183e+01 3.996194e+01
         vertex -1.752157e+01 6.510196e+01 3.985355e+01
      endloop
   endfacet
   facet normal -1.305665e-01 8.243548e-01 5.508099e-01
      outer loop
         vertex -1.690000e+01 6.566194e+01 3.969134e+01
         vertex -1.713545e+01 6.562465e+01 3.969134e+01
         vertex -1.710196e+01 6.552157e+01 3.985355e+01
      endloop
   endfacet
   facet normal -8.243546e-01 1.305676e-01 5.508100e-01
      outer loop
         vertex -1.766194e+01 6.490000e+01 3.969134e+01
         vertex -1.752157e+01 6.510196e+01 3.985355e+01
         vertex -1.762465e+01 6.513545e+01 3.969134e+01
      endloop
   endfacet
   facet normal -4.454913e-01 8.742838e-01 1.927830e-01
      outer loop
         vertex -1.737023e+01 6.554721e+01 3.950000e+01
         vertex -1.734786e+01 6.551642e+01 3.969134e+01
         vertex -1.713545e+01 6.562465e+01 3.969134e+01
      endloop
   endfacet
   facet normal -6.938360e-01 6.938438e-01 1.928015e-01
      outer loop
         vertex -1.754721e+01 6.537023e+01 3.950000e+01
         vertex -1.751642e+01 6.534785e+01 3.969134e+01
         vertex -1.734786e+01 6.551642e+01 3.969134e+01
      endloop
   endfacet
   facet normal -8.742911e-01 4.454755e-01 1.927868e-01
      outer loop
         vertex -1.766084e+01 6.514722e+01 3.950000e+01
         vertex -1.762465e+01 6.513545e+01 3.969134e+01
         vertex -1.751642e+01 6.534785e+01 3.969134e+01
      endloop
   endfacet
   facet normal -9.691604e-01 1.535030e-01 1.927823e-01
      outer loop
         vertex -1.762465e+01 6.513545e+01 3.969134e+01
         vertex -1.766084e+01 6.514722e+01 3.950000e+01
         vertex -1.766194e+01 6.490000e+01 3.969134e+01
      endloop
   endfacet
   facet normal -1.535024e-01 9.691648e-01 1.927607e-01
      outer loop
         vertex -1.690000e+01 6.566194e+01 3.969134e+01
         vertex -1.714721e+01 6.566084e+01 3.950000e+01
         vertex -1.713545e+01 6.562465e+01 3.969134e+01
      endloop
   endfacet
   facet normal -1.351073e-01 1.351145e-01 9.815753e-01
      outer loop
         vertex -1.729750e+01 6.518880e+01 3.996194e+01
         vertex -1.715981e+01 6.505000e+01 4.000000e+01
         vertex -1.718880e+01 6.529750e+01 3.996194e+01
      endloop
   endfacet
   facet normal 0.000000e+00 1.950820e-01 9.807869e-01
      outer loop
         vertex 1.690000e+01 6.520000e+01 4.000000e+01
         vertex 1.690000e+01 6.539134e+01 3.996194e+01
         vertex -1.690000e+01 6.539134e+01 3.996194e+01
      endloop
   endfacet
   facet normal 0.000000e+00 1.950820e-01 9.807869e-01
      outer loop
         vertex 1.690000e+01 6.520000e+01 4.000000e+01
         vertex -1.690000e+01 6.539134e+01 3.996194e+01
         vertex -1.690000e+01 6.520000e+01 4.000000e+01
      endloop
   endfacet
   facet normal 0.000000e+00 5.555798e-01 8.314632e-01
      outer loop
         vertex 1.690000e+01 6.539134e+01 3.996194e+01
         vertex 1.690000e+01 6.555355e+01 3.985355e+01
         vertex -1.690000e+01 6.555355e+01 3.985355e+01
      endloop
   endfacet
   facet normal 0.000000e+00 5.555798e-01 8.314632e-01
      outer loop
         vertex 1.690000e+01 6.539134e+01 3.996194e+01
         vertex -1.690000e+01 6.555355e+01 3.985355e+01
         vertex -1.690000e+01 6.539134e+01 3.996194e+01
      endloop
   endfacet
   facet normal 0.000000e+00 8.314602e-01 5.555843e-01
      outer loop
         vertex 1.690000e+01 6.555355e+01 3.985355e+01
         vertex 1.690000e+01 6.566194e+01 3.969134e+01
         vertex -1.690000e+01 6.566194e+01 3.969134e+01
      endloop
   endfacet
   facet normal 0.000000e+00 8.314602e-01 5.555843e-01
      outer loop
         vertex 1.690000e+01 6.555355e+01 3.985355e+01
         vertex -1.690000e+01 6.566194e+01 3.969134e+01
         vertex -1.690000e+01 6.555355e+01 3.985355e+01
      endloop
   endfacet
   facet normal 0.000000e+00 9.807899e-01 1.950669e-01
      outer loop
         vertex 1.690000e+01 6.566194e+01 3.969134e+01
         vertex 1.690000e+01 6.570000e+01 3.950000e+01
         vertex -1.690000e+01 6.570000e+01 3.950000e+01
      endloop
   endfacet
   facet normal 0.000000e+00 9.807899e-01 1.950669e-01
      outer loop
         vertex 1.690000e+01 6.566194e+01 3.969134e+01
         vertex -1.690000e+01 6.570000e+01 3.950000e+01
         vertex -1.690000e+01 6.566194e+01 3.969134e+01
      endloop
   endfacet
   facet normal 0.000000e+00 0.000000e+00 1.000000e+00
      outer loop
         vertex 1.715981e+01 -6.505000e+01 4.000000e+01
         vertex 1.720000e+01 -6.490000e+01 4.000000e+01
         vertex 1.705000e+01 -6.515981e+01 4.000000e+01
      endloop
   endfacet
   facet normal 0.000000e+00 0.000000e+00 1.000000e+00
      outer loop
         vertex 1.720000e+01 -6.490000e+01 4.000000e+01
         vertex 1.720000e+01 6.490000e+01 4.000000e+01
         vertex 1.660000e+01 -6.460000e+01 4.000000e+01
      endloop
   endfacet
   facet normal 0.000000e+00 0.000000e+00 1.000000e+00
      outer loop
         vertex 1.720000e+01 6.490000e+01 4.000000e+01
         vertex 1.715981e+01 6.505000e+01 4.000000e+01
         vertex 1.705000e+01 6.515981e+01 4.000000e+01
      endloop
   endfacet
   facet normal 0.000000e+00 0.000000e+00 1.000000e+00
      outer loop
         vertex 1.705000e+01 6.515981e+01 4.000000e+01
         vertex 1.690000e+01 6.520000e+01 4.000000e+01
         vertex 1.720000e+01 6.490000e+01 4.000000e+01
      endloop
   endfacet
   facet normal -0.000000e+00 0.000000e+00 1.000000e+00
      outer loop
         vertex 1.690000e+01 6.520000e+01 4.000000e+01
         vertex -1.690000e+01 6.520000e+01 4.000000e+01
         vertex -1.660000e+01 6.460000e+01 4.000000e+01
      endloop
   endfacet
   facet normal -0.000000e+00 0.000000e+00 1.000000e+00
      outer loop
         vertex -1.690000e+01 6.520000e+01 4.000000e+01
         vertex -1.705000e+01 6.515981e+01 4.000000e+01
         vertex -1.720000e+01 6.490000e+01 4.000000e+01
      endloop
   endfacet
   facet normal -0.000000e+00 0.000000e+00 1.000000e+00
      outer loop
         vertex -1.705000e+01 6.515981e+01 4.000000e+01
         vertex -1.715981e+01 6.505000e+01 4.000000e+01
         vertex -1.720000e+01 6.490000e+01 4.000000e+01
      endloop
   endfacet
   facet normal 0.000000e+00 0.000000e+00 1.000000e+00
      outer loop
         vertex -1.720000e+01 6.490000e+01 4.000000e+01
         vertex -1.720000e+01 -6.490000e+01 4.000000e+01
         vertex -1.660000e+01 6.460000e+01 4.000000e+01
      endloop
   endfacet
   facet normal -0.000000e+00 -0.000000e+00 1.000000e+00
      outer loop
         vertex -1.720000e+01 -6.490000e+01 4.000000e+01
         vertex -1.715981e+01 -6.505000e+01 4.000000e+01
         vertex -1.705000e+01 -6.515981e+01 4.000000e+01
      endloop
   endfacet
   facet normal 0.000000e+00 0.000000e+00 1.000000e+00
      outer loop
         vertex -1.705000e+01 -6.515981e+01 4.000000e+01
         vertex -1.690000e+01 -6.520000e+01 4.000000e+01
         vertex -1.720000e+01 -6.490000e+01 4.000000e+01
      endloop
   endfacet
   facet normal 0.000000e+00 0.000000e+00 1.000000e+00
      outer loop
         vertex -1.690000e+01 -6.520000e+01 4.000000e+01
         vertex 1.690000e+01 -6.520000e+01 4.000000e+01
         vertex 1.660000e+01 -6.460000e+01 4.000000e+01
      endloop
   endfacet
   facet normal 0.000000e+00 -0.000000e+00 1.000000e+00
      outer loop
         vertex 1.690000e+01 -6.520000e+01 4.000000e+01
         vertex 1.705000e+01 -6.515981e+01 4.000000e+01
         vertex 1.720000e+01 -6.490000e+01 4.000000e+01
      endloop
   endfacet
   facet normal -0.000000e+00 0.000000e+00 1.000000e+00
      outer loop
         vertex 1.660000e+01 -6.460000e+01 4.000000e+01
         vertex -1.660000e+01 -6.460000e+01 4.000000e+01
         vertex -1.690000e+01 -6.520000e+01 4.000000e+01
      endloop
   endfacet
   facet normal 0.000000e+00 0.000000e+00 1.000000e+00
      outer loop
         vertex -1.660000e+01 -6.460000e+01 4.000000e+01
         vertex -1.660000e+01 6.460000e+01 4.000000e+01
         vertex -1.720000e+01 -6.490000e+01 4.000000e+01
      endloop
   endfacet
   facet normal 0.000000e+00 -0.000000e+00 1.000000e+00
      outer loop
         vertex -1.660000e+01 6.460000e+01 4.000000e+01
         vertex 1.660000e+01 6.460000e+01 4.000000e+01
         vertex 1.690000e+01 6.520000e+01 4.000000e+01
      endloop
   endfacet
   facet normal 0.000000e+00 0.000000e+00 1.000000e+00
      outer loop
         vertex 1.660000e+01 6.460000e+01 4.000000e+01
         vertex 1.660000e+01 -6.460000e+01 4.000000e+01
         vertex 1.720000e+01 6.490000e+01 4.000000e+01
      endloop
   endfacet
   facet normal 0.000000e+00 0.000000e+00 1.000000e+00
      outer loop
         vertex 1.720000e+01 -6.490000e+01 4.000000e+01
         vertex 1.660000e+01 -6.460000e+01 4.000000e+01
         vertex 1.690000e+01 -6.520000e+01 4.000000e+01
      endloop
   endfacet
   facet normal 0.000000e+00 0.000000e+00 1.000000e+00
      outer loop
         vertex 1.720000e+01 6.490000e+01 4.000000e+01
         vertex 1.690000e+01 6.520000e+01 4.000000e+01
         vertex 1.660000e+01 6.460000e+01 4.000000e+01
      endloop
   endfacet
   facet normal 0.000000e+00 0.000000e+00 1.000000e+00
      outer loop
         vertex -1.660000e+01 6.460000e+01 4.000000e+01
         vertex -1.690000e+01 6.520000e+01 4.000000e+01
         vertex -1.720000e+01 6.490000e+01 4.000000e+01
      endloop
   endfacet
   facet normal 0.000000e+00 -0.000000e+00 1.000000e+00
      outer loop
         vertex -1.720000e+01 -6.490000e+01 4.000000e+01
         vertex -1.690000e+01 -6.520000e+01 4.000000e+01
         vertex -1.660000e+01 -6.460000e+01 4.000000e+01
      endloop
   endfacet
endsolid
